<?xml version="1.0" encoding="UTF-8"?>
<svg xmlns="http://www.w3.org/2000/svg" viewBox="-9.600308 -9.600308 19.200616 19.200616" width="900" height="900">
  <rect x="-9.600308" y="-9.600308" width="19.200616" height="19.200616" fill="#f8fafc" stroke="#0f172a" stroke-width="0.05"/>
  <g fill="#38bdf8" stroke="#0369a1" stroke-width="0.015">
    <rect x="-9.596616" y="7.554905" width="1.0" height="1.0" transform="rotate(0.005873 -9.096616 8.054905)" />
    <rect x="-8.592622" y="7.555454" width="1.0" height="1.0" transform="rotate(0.036810 -8.092622 8.055454)" />
    <rect x="7.595943" y="-9.589116" width="1.0" height="1.0" transform="rotate(0.021450 8.095943 -9.089116)" />
    <rect x="7.595597" y="-8.582315" width="1.0" height="1.0" transform="rotate(0.011217 8.095597 -8.082315)" />
    <rect x="-9.598556" y="-0.529683" width="1.0" height="1.0" transform="rotate(0.054070 -9.098556 -0.029683)" />
    <rect x="-9.600308" y="-1.534744" width="1.0" height="1.0" transform="rotate(0.000000 -9.100308 -1.034744)" />
    <rect x="-9.600308" y="-2.584369" width="1.0" height="1.0" transform="rotate(90.000000 -9.100308 -2.084369)" />
    <rect x="-8.600308" y="-2.583652" width="1.0" height="1.0" transform="rotate(90.000000 -8.100308 -2.083652)" />
    <rect x="-9.600065" y="-3.587171" width="1.0" height="1.0" transform="rotate(0.004362 -9.100065 -3.087171)" />
    <rect x="-8.599593" y="-3.586385" width="1.0" height="1.0" transform="rotate(0.008373 -8.099593 -3.086385)" />
    <rect x="-7.599011" y="-3.586276" width="1.0" height="1.0" transform="rotate(89.996912 -7.099011 -3.086276)" />
    <rect x="-9.600054" y="-4.589508" width="1.0" height="1.0" transform="rotate(89.999772 -9.100054 -4.089508)" />
    <rect x="-8.599533" y="-4.589345" width="1.0" height="1.0" transform="rotate(89.999165 -8.099533 -4.089345)" />
    <rect x="-7.599009" y="-4.589263" width="1.0" height="1.0" transform="rotate(89.998926 -7.099009 -4.089263)" />
    <rect x="-6.598258" y="-4.589448" width="1.0" height="1.0" transform="rotate(0.002327 -6.098258 -4.089448)" />
    <rect x="-9.600308" y="-5.591676" width="1.0" height="1.0" transform="rotate(0.000000 -9.100308 -5.091676)" />
    <rect x="-8.600308" y="-5.591609" width="1.0" height="1.0" transform="rotate(0.000000 -8.100308 -5.091609)" />
    <rect x="-7.600308" y="-5.591579" width="1.0" height="1.0" transform="rotate(0.000000 -7.100308 -5.091579)" />
    <rect x="-6.600308" y="-5.591786" width="1.0" height="1.0" transform="rotate(0.000000 -6.100308 -5.091786)" />
    <rect x="-5.600308" y="-5.599969" width="1.0" height="1.0" transform="rotate(0.000000 -5.100308 -5.099969)" />
    <rect x="-9.600308" y="-6.593749" width="1.0" height="1.0" transform="rotate(0.000000 -9.100308 -6.093749)" />
    <rect x="-8.600308" y="-6.593719" width="1.0" height="1.0" transform="rotate(0.000000 -8.100308 -6.093719)" />
    <rect x="-7.600308" y="-6.593762" width="1.0" height="1.0" transform="rotate(0.000000 -7.100308 -6.093762)" />
    <rect x="-6.600308" y="-6.593840" width="1.0" height="1.0" transform="rotate(0.000000 -6.100308 -6.093840)" />
    <rect x="-5.600308" y="-6.600009" width="1.0" height="1.0" transform="rotate(0.000000 -5.100308 -6.100009)" />
    <rect x="-4.600308" y="-6.600017" width="1.0" height="1.0" transform="rotate(0.000000 -4.100308 -6.100017)" />
    <rect x="-9.600308" y="-7.595760" width="1.0" height="1.0" transform="rotate(0.000000 -9.100308 -7.095760)" />
    <rect x="-8.600308" y="-7.595745" width="1.0" height="1.0" transform="rotate(0.000000 -8.100308 -7.095745)" />
    <rect x="-7.600308" y="-7.595774" width="1.0" height="1.0" transform="rotate(0.000000 -7.100308 -7.095774)" />
    <rect x="-6.600308" y="-7.596064" width="1.0" height="1.0" transform="rotate(0.000000 -6.100308 -7.096064)" />
    <rect x="-5.600308" y="-7.600082" width="1.0" height="1.0" transform="rotate(0.000000 -5.100308 -7.100082)" />
    <rect x="-4.600308" y="-7.600102" width="1.0" height="1.0" transform="rotate(0.000000 -4.100308 -7.100102)" />
    <rect x="-3.600308" y="-7.600115" width="1.0" height="1.0" transform="rotate(0.000000 -3.100308 -7.100115)" />
    <rect x="-9.600308" y="-8.597663" width="1.0" height="1.0" transform="rotate(0.000000 -9.100308 -8.097663)" />
    <rect x="-8.600308" y="-8.597638" width="1.0" height="1.0" transform="rotate(0.000000 -8.100308 -8.097638)" />
    <rect x="-7.600308" y="-8.597672" width="1.0" height="1.0" transform="rotate(0.000000 -7.100308 -8.097672)" />
    <rect x="-6.600308" y="-8.597901" width="1.0" height="1.0" transform="rotate(0.000000 -6.100308 -8.097901)" />
    <rect x="-5.600308" y="-8.600177" width="1.0" height="1.0" transform="rotate(0.000000 -5.100308 -8.100177)" />
    <rect x="-4.600308" y="-8.600178" width="1.0" height="1.0" transform="rotate(0.000000 -4.100308 -8.100178)" />
    <rect x="-3.600308" y="-8.600174" width="1.0" height="1.0" transform="rotate(0.000000 -3.100308 -8.100174)" />
    <rect x="-2.600289" y="-8.600308" width="1.0" height="1.0" transform="rotate(0.000000 -2.100289 -8.100308)" />
    <rect x="-9.600308" y="-9.599368" width="1.0" height="1.0" transform="rotate(0.000023 -9.100308 -9.099368)" />
    <rect x="-8.600308" y="-9.599322" width="1.0" height="1.0" transform="rotate(0.000041 -8.100308 -9.099322)" />
    <rect x="-7.600308" y="-9.599344" width="1.0" height="1.0" transform="rotate(0.000041 -7.100308 -9.099344)" />
    <rect x="-6.600308" y="-9.599396" width="1.0" height="1.0" transform="rotate(0.000042 -6.100308 -9.099396)" />
    <rect x="-5.600301" y="-9.600225" width="1.0" height="1.0" transform="rotate(0.000202 -5.100301 -9.100225)" />
    <rect x="-4.600296" y="-9.600207" width="1.0" height="1.0" transform="rotate(0.000127 -4.100296 -9.100207)" />
    <rect x="-3.600291" y="-9.600225" width="1.0" height="1.0" transform="rotate(0.000091 -3.100291 -9.100225)" />
    <rect x="-2.597666" y="-9.600308" width="1.0" height="1.0" transform="rotate(0.000000 -2.097666 -9.100308)" />
    <rect x="-1.594700" y="-9.600308" width="1.0" height="1.0" transform="rotate(0.000000 -1.094700 -9.100308)" />
    <rect x="-0.591376" y="-9.600308" width="1.0" height="1.0" transform="rotate(0.000000 -0.091376 -9.100308)" />
    <rect x="-6.579215" y="6.596286" width="1.0" height="1.0" transform="rotate(0.009788 -6.079215 7.096286)" />
    <rect x="-5.573094" y="7.600308" width="1.0" height="1.0" transform="rotate(0.000000 -5.073094 8.100308)" />
    <rect x="-4.565378" y="7.600308" width="1.0" height="1.0" transform="rotate(90.000000 -4.065378 8.100308)" />
    <rect x="-3.523365" y="8.599687" width="1.0" height="1.0" transform="rotate(0.012373 -3.023365 9.099687)" />
    <rect x="-2.508656" y="7.600308" width="1.0" height="1.0" transform="rotate(0.000000 -2.008656 8.100308)" />
    <rect x="-1.503642" y="7.600308" width="1.0" height="1.0" transform="rotate(90.000000 -1.003642 8.100308)" />
    <rect x="-0.497793" y="7.600308" width="1.0" height="1.0" transform="rotate(90.000000 0.002207 8.100308)" />
    <rect x="0.507814" y="7.600308" width="1.0" height="1.0" transform="rotate(0.000000 1.007814 8.100308)" />
    <rect x="1.512666" y="7.600308" width="1.0" height="1.0" transform="rotate(90.000000 2.012666 8.100308)" />
    <rect x="2.516920" y="7.600308" width="1.0" height="1.0" transform="rotate(0.000000 3.016920 8.100308)" />
    <rect x="3.521365" y="7.600308" width="1.0" height="1.0" transform="rotate(90.000000 4.021365 8.100308)" />
    <rect x="4.525600" y="7.600308" width="1.0" height="1.0" transform="rotate(90.000000 5.025600 8.100308)" />
    <rect x="5.529349" y="7.599230" width="1.0" height="1.0" transform="rotate(89.998849 6.029349 8.099230)" />
    <rect x="6.533914" y="7.522017" width="1.0" height="1.0" transform="rotate(0.039653 7.033914 8.022017)" />
    <rect x="7.537908" y="7.522742" width="1.0" height="1.0" transform="rotate(0.048056 8.037908 8.022742)" />
    <rect x="-5.572619" y="6.600308" width="1.0" height="1.0" transform="rotate(0.000000 -5.072619 7.100308)" />
    <rect x="-4.566930" y="5.600308" width="1.0" height="1.0" transform="rotate(90.000000 -4.066930 6.100308)" />
    <rect x="-3.556289" y="7.598229" width="1.0" height="1.0" transform="rotate(0.011939 -3.056289 8.098229)" />
    <rect x="-2.506515" y="6.600308" width="1.0" height="1.0" transform="rotate(0.000000 -2.006515 7.100308)" />
    <rect x="-1.502620" y="6.600308" width="1.0" height="1.0" transform="rotate(90.000000 -1.002620 7.100308)" />
    <rect x="-0.496660" y="6.600308" width="1.0" height="1.0" transform="rotate(90.000000 0.003340 7.100308)" />
    <rect x="0.507917" y="6.600308" width="1.0" height="1.0" transform="rotate(0.000000 1.007917 7.100308)" />
    <rect x="1.512661" y="6.600308" width="1.0" height="1.0" transform="rotate(90.000000 2.012661 7.100308)" />
    <rect x="2.517261" y="6.600308" width="1.0" height="1.0" transform="rotate(0.000000 3.017261 7.100308)" />
    <rect x="3.521677" y="6.600308" width="1.0" height="1.0" transform="rotate(90.000000 4.021677 7.100308)" />
    <rect x="4.525921" y="6.600308" width="1.0" height="1.0" transform="rotate(90.000000 5.025921 7.100308)" />
    <rect x="5.529695" y="6.598505" width="1.0" height="1.0" transform="rotate(89.999205 6.029695 7.098505)" />
    <rect x="6.534284" y="6.517871" width="1.0" height="1.0" transform="rotate(0.024749 7.034284 7.017871)" />
    <rect x="7.538440" y="6.518709" width="1.0" height="1.0" transform="rotate(0.043030 8.038440 7.018709)" />
    <rect x="-4.566145" y="6.600308" width="1.0" height="1.0" transform="rotate(90.000000 -4.066145 7.100308)" />
    <rect x="-3.512072" y="6.597003" width="1.0" height="1.0" transform="rotate(89.998985 -3.012072 7.097003)" />
    <rect x="-2.505871" y="5.600308" width="1.0" height="1.0" transform="rotate(90.000000 -2.005871 6.100308)" />
    <rect x="-1.500732" y="5.600308" width="1.0" height="1.0" transform="rotate(90.000000 -1.000732 6.100308)" />
    <rect x="-0.496238" y="5.600308" width="1.0" height="1.0" transform="rotate(90.000000 0.003762 6.100308)" />
    <rect x="0.508580" y="5.600308" width="1.0" height="1.0" transform="rotate(0.000000 1.008580 6.100308)" />
    <rect x="1.513606" y="5.600308" width="1.0" height="1.0" transform="rotate(90.000000 2.013606 6.100308)" />
    <rect x="2.518088" y="5.600308" width="1.0" height="1.0" transform="rotate(0.000000 3.018088 6.100308)" />
    <rect x="3.522064" y="5.600308" width="1.0" height="1.0" transform="rotate(90.000000 4.022064 6.100308)" />
    <rect x="4.526282" y="5.600308" width="1.0" height="1.0" transform="rotate(90.000000 5.026282 6.100308)" />
    <rect x="5.530108" y="5.597763" width="1.0" height="1.0" transform="rotate(89.999277 6.030108 6.097763)" />
    <rect x="6.535010" y="5.513974" width="1.0" height="1.0" transform="rotate(0.027025 7.035010 6.013974)" />
    <rect x="7.538975" y="5.514481" width="1.0" height="1.0" transform="rotate(0.042740 8.038975 6.014481)" />
    <rect x="-3.559841" y="5.595735" width="1.0" height="1.0" transform="rotate(0.010633 -3.059841 6.095735)" />
    <rect x="-2.504268" y="4.600308" width="1.0" height="1.0" transform="rotate(90.000000 -2.004268 5.100308)" />
    <rect x="-1.500130" y="4.600308" width="1.0" height="1.0" transform="rotate(90.000000 -1.000130 5.100308)" />
    <rect x="-0.495340" y="4.600308" width="1.0" height="1.0" transform="rotate(90.000000 0.004660 5.100308)" />
    <rect x="0.509375" y="4.600308" width="1.0" height="1.0" transform="rotate(0.000000 1.009375 5.100308)" />
    <rect x="1.514235" y="4.600308" width="1.0" height="1.0" transform="rotate(90.000000 2.014235 5.100308)" />
    <rect x="2.518206" y="4.600308" width="1.0" height="1.0" transform="rotate(0.000000 3.018206 5.100308)" />
    <rect x="3.522428" y="4.600308" width="1.0" height="1.0" transform="rotate(90.000000 4.022428 5.100308)" />
    <rect x="4.526636" y="4.600308" width="1.0" height="1.0" transform="rotate(90.000000 5.026636 5.100308)" />
    <rect x="5.530485" y="4.596980" width="1.0" height="1.0" transform="rotate(89.992797 6.030485 5.096980)" />
    <rect x="6.535192" y="4.509870" width="1.0" height="1.0" transform="rotate(0.023252 7.035192 5.009870)" />
    <rect x="7.539061" y="4.510266" width="1.0" height="1.0" transform="rotate(0.031359 8.039061 5.010266)" />
    <rect x="-3.509217" y="4.594481" width="1.0" height="1.0" transform="rotate(0.028266 -3.009217 5.094481)" />
    <rect x="-2.503428" y="3.600308" width="1.0" height="1.0" transform="rotate(0.000000 -2.003428 4.100308)" />
    <rect x="-1.499100" y="3.600308" width="1.0" height="1.0" transform="rotate(90.000000 -0.999100 4.100308)" />
    <rect x="-0.494305" y="3.600308" width="1.0" height="1.0" transform="rotate(90.000000 0.005695 4.100308)" />
    <rect x="0.510591" y="3.600308" width="1.0" height="1.0" transform="rotate(0.000000 1.010591 4.100308)" />
    <rect x="1.514844" y="3.600308" width="1.0" height="1.0" transform="rotate(90.000000 2.014844 4.100308)" />
    <rect x="2.518569" y="3.600308" width="1.0" height="1.0" transform="rotate(0.000000 3.018569 4.100308)" />
    <rect x="3.522711" y="3.600308" width="1.0" height="1.0" transform="rotate(90.000000 4.022711 4.100308)" />
    <rect x="4.526607" y="3.600308" width="1.0" height="1.0" transform="rotate(90.000000 5.026607 4.100308)" />
    <rect x="5.530728" y="3.596142" width="1.0" height="1.0" transform="rotate(89.990682 6.030728 4.096142)" />
    <rect x="6.535361" y="3.506012" width="1.0" height="1.0" transform="rotate(0.004916 7.035361 4.006012)" />
    <rect x="7.539718" y="3.506387" width="1.0" height="1.0" transform="rotate(0.027608 8.039718 4.006387)" />
    <rect x="-3.509687" y="3.593276" width="1.0" height="1.0" transform="rotate(0.037724 -3.009687 4.093276)" />
    <rect x="-2.502656" y="2.600308" width="1.0" height="1.0" transform="rotate(0.000000 -2.002656 3.100308)" />
    <rect x="-1.497544" y="2.600308" width="1.0" height="1.0" transform="rotate(90.000000 -0.997544 3.100308)" />
    <rect x="-0.493069" y="2.600308" width="1.0" height="1.0" transform="rotate(90.000000 0.006931 3.100308)" />
    <rect x="0.511500" y="2.600308" width="1.0" height="1.0" transform="rotate(0.000000 1.011500 3.100308)" />
    <rect x="1.514756" y="2.600308" width="1.0" height="1.0" transform="rotate(90.000000 2.014756 3.100308)" />
    <rect x="2.518744" y="2.600308" width="1.0" height="1.0" transform="rotate(0.000000 3.018744 3.100308)" />
    <rect x="3.522846" y="2.600308" width="1.0" height="1.0" transform="rotate(90.000000 4.022846 3.100308)" />
    <rect x="4.527060" y="2.600308" width="1.0" height="1.0" transform="rotate(90.000000 5.027060 3.100308)" />
    <rect x="5.531260" y="2.595179" width="1.0" height="1.0" transform="rotate(89.997061 6.031260 3.095179)" />
    <rect x="6.600308" y="2.501389" width="1.0" height="1.0" transform="rotate(0.000000 7.100308 3.001389)" />
    <rect x="7.600308" y="2.501102" width="1.0" height="1.0" transform="rotate(0.000000 8.100308 3.001102)" />
    <rect x="-2.502109" y="1.600308" width="1.0" height="1.0" transform="rotate(0.000000 -2.002109 2.100308)" />
    <rect x="-1.496689" y="1.600308" width="1.0" height="1.0" transform="rotate(90.000000 -0.996689 2.100308)" />
    <rect x="-0.486172" y="1.600308" width="1.0" height="1.0" transform="rotate(90.000000 0.013828 2.100308)" />
    <rect x="0.519894" y="1.600308" width="1.0" height="1.0" transform="rotate(0.000000 1.019894 2.100308)" />
    <rect x="1.524039" y="1.600308" width="1.0" height="1.0" transform="rotate(90.000000 2.024039 2.100308)" />
    <rect x="2.600307" y="1.600308" width="1.0" height="1.0" transform="rotate(90.000000 3.100307 2.100308)" />
    <rect x="3.600308" y="1.600308" width="1.0" height="1.0" transform="rotate(0.000000 4.100308 2.100308)" />
    <rect x="4.600308" y="1.594037" width="1.0" height="1.0" transform="rotate(0.000000 5.100308 2.094037)" />
    <rect x="5.600308" y="1.593792" width="1.0" height="1.0" transform="rotate(0.000000 6.100308 2.093792)" />
    <rect x="6.600308" y="1.497337" width="1.0" height="1.0" transform="rotate(0.000000 7.100308 1.997337)" />
    <rect x="7.600308" y="1.497444" width="1.0" height="1.0" transform="rotate(0.000000 8.100308 1.997444)" />
    <rect x="-1.403863" y="0.600308" width="1.0" height="1.0" transform="rotate(0.000000 -0.903863 1.100308)" />
    <rect x="-0.400708" y="0.600308" width="1.0" height="1.0" transform="rotate(0.000000 0.099292 1.100308)" />
    <rect x="0.600308" y="0.600308" width="1.0" height="1.0" transform="rotate(0.000000 1.100308 1.100308)" />
    <rect x="1.600308" y="0.600307" width="1.0" height="1.0" transform="rotate(0.000000 2.100308 1.100307)" />
    <rect x="2.600308" y="0.600308" width="1.0" height="1.0" transform="rotate(90.000000 3.100308 1.100308)" />
    <rect x="3.600308" y="0.600308" width="1.0" height="1.0" transform="rotate(0.000000 4.100308 1.100308)" />
    <rect x="4.600308" y="0.592169" width="1.0" height="1.0" transform="rotate(0.000000 5.100308 1.092169)" />
    <rect x="5.600308" y="0.592103" width="1.0" height="1.0" transform="rotate(0.000000 6.100308 1.092103)" />
    <rect x="6.600308" y="0.491544" width="1.0" height="1.0" transform="rotate(0.000000 7.100308 0.991544)" />
    <rect x="7.600308" y="0.491533" width="1.0" height="1.0" transform="rotate(0.000000 8.100308 0.991533)" />
    <rect x="8.600308" y="0.491648" width="1.0" height="1.0" transform="rotate(0.000000 9.100308 0.991648)" />
    <rect x="-2.502223" y="0.600308" width="1.0" height="1.0" transform="rotate(0.000000 -2.002223 1.100308)" />
    <rect x="-1.401454" y="-0.399692" width="1.0" height="1.0" transform="rotate(0.000000 -0.901454 0.100308)" />
    <rect x="-0.399692" y="-0.399692" width="1.0" height="1.0" transform="rotate(0.000000 0.100308 0.100308)" />
    <rect x="0.600308" y="-0.399692" width="1.0" height="1.0" transform="rotate(0.000000 1.100308 0.100308)" />
    <rect x="1.600308" y="-0.399693" width="1.0" height="1.0" transform="rotate(0.000000 2.100308 0.100307)" />
    <rect x="2.600308" y="-0.399692" width="1.0" height="1.0" transform="rotate(90.000000 3.100308 0.100308)" />
    <rect x="3.600308" y="-0.399692" width="1.0" height="1.0" transform="rotate(0.000000 4.100308 0.100308)" />
    <rect x="4.600308" y="-0.409881" width="1.0" height="1.0" transform="rotate(0.000000 5.100308 0.090119)" />
    <rect x="5.600308" y="-0.409988" width="1.0" height="1.0" transform="rotate(0.000000 6.100308 0.090012)" />
    <rect x="6.600308" y="-0.514107" width="1.0" height="1.0" transform="rotate(0.000000 7.100308 -0.014107)" />
    <rect x="7.600308" y="-0.514141" width="1.0" height="1.0" transform="rotate(0.000000 8.100308 -0.014141)" />
    <rect x="-2.407511" y="-0.399692" width="1.0" height="1.0" transform="rotate(0.000000 -1.907511 0.100308)" />
    <rect x="-1.399692" y="-1.399692" width="1.0" height="1.0" transform="rotate(0.000000 -0.899692 -0.899692)" />
    <rect x="-0.399692" y="-1.399692" width="1.0" height="1.0" transform="rotate(0.000000 0.100308 -0.899692)" />
    <rect x="0.600308" y="-1.399692" width="1.0" height="1.0" transform="rotate(0.000000 1.100308 -0.899692)" />
    <rect x="1.600308" y="-1.399694" width="1.0" height="1.0" transform="rotate(0.000000 2.100308 -0.899694)" />
    <rect x="2.600308" y="-1.399692" width="1.0" height="1.0" transform="rotate(90.000000 3.100308 -0.899692)" />
    <rect x="3.600308" y="-1.399692" width="1.0" height="1.0" transform="rotate(0.000000 4.100308 -0.899692)" />
    <rect x="4.600308" y="-1.412241" width="1.0" height="1.0" transform="rotate(0.000000 5.100308 -0.912241)" />
    <rect x="5.600308" y="-1.412645" width="1.0" height="1.0" transform="rotate(0.000000 6.100308 -0.912645)" />
    <rect x="6.600308" y="-1.520379" width="1.0" height="1.0" transform="rotate(0.000000 7.100308 -1.020379)" />
    <rect x="7.600308" y="-1.520381" width="1.0" height="1.0" transform="rotate(0.000000 8.100308 -1.020381)" />
    <rect x="-2.399692" y="-1.399692" width="1.0" height="1.0" transform="rotate(0.000000 -1.899692 -0.899692)" />
    <rect x="-1.399692" y="-2.399692" width="1.0" height="1.0" transform="rotate(0.000000 -0.899692 -1.899692)" />
    <rect x="-0.399692" y="-2.399692" width="1.0" height="1.0" transform="rotate(0.000000 0.100308 -1.899692)" />
    <rect x="0.600308" y="-2.399692" width="1.0" height="1.0" transform="rotate(0.000000 1.100308 -1.899692)" />
    <rect x="1.600308" y="-2.399695" width="1.0" height="1.0" transform="rotate(0.000000 2.100308 -1.899695)" />
    <rect x="2.600308" y="-2.399692" width="1.0" height="1.0" transform="rotate(90.000000 3.100308 -1.899692)" />
    <rect x="3.600308" y="-3.399692" width="1.0" height="1.0" transform="rotate(0.000000 4.100308 -2.899692)" />
    <rect x="4.600308" y="-2.414697" width="1.0" height="1.0" transform="rotate(0.000000 5.100308 -1.914697)" />
    <rect x="5.600308" y="-2.415127" width="1.0" height="1.0" transform="rotate(0.000000 6.100308 -1.915127)" />
    <rect x="6.600308" y="-2.528514" width="1.0" height="1.0" transform="rotate(0.000000 7.100308 -2.028514)" />
    <rect x="7.600308" y="-2.527035" width="1.0" height="1.0" transform="rotate(0.000000 8.100308 -2.027035)" />
    <rect x="2.600308" y="-3.399692" width="1.0" height="1.0" transform="rotate(90.000000 3.100308 -2.899692)" />
    <rect x="3.600308" y="-2.399692" width="1.0" height="1.0" transform="rotate(0.000000 4.100308 -1.899692)" />
    <rect x="4.600308" y="-3.417550" width="1.0" height="1.0" transform="rotate(0.000000 5.100308 -2.917550)" />
    <rect x="5.600308" y="-3.539043" width="1.0" height="1.0" transform="rotate(0.000000 6.100308 -3.039043)" />
    <rect x="6.600308" y="-3.535740" width="1.0" height="1.0" transform="rotate(0.000000 7.100308 -3.035740)" />
    <rect x="7.600308" y="-3.534449" width="1.0" height="1.0" transform="rotate(0.000000 8.100308 -3.034449)" />
    <rect x="5.600308" y="-4.544919" width="1.0" height="1.0" transform="rotate(90.000000 6.100308 -4.044919)" />
    <rect x="6.600308" y="-4.543059" width="1.0" height="1.0" transform="rotate(0.000000 7.100308 -4.043059)" />
    <rect x="7.600308" y="-4.542151" width="1.0" height="1.0" transform="rotate(0.000000 8.100308 -4.042151)" />
    <rect x="6.600308" y="-5.550358" width="1.0" height="1.0" transform="rotate(90.000000 7.100308 -5.050358)" />
    <rect x="7.600308" y="-5.550765" width="1.0" height="1.0" transform="rotate(90.000000 8.100308 -5.050765)" />
    <rect x="7.594253" y="-6.560467" width="1.0" height="1.0" transform="rotate(0.044537 8.094253 -6.060467)" />
    <rect x="-4.593821" y="-4.599914" width="1.0" height="1.0" transform="rotate(89.999600 -4.093821 -4.099914)" />
    <rect x="-9.596189" y="6.550342" width="1.0" height="1.0" transform="rotate(0.033604 -9.096189 7.050342)" />
    <rect x="-8.592355" y="6.551263" width="1.0" height="1.0" transform="rotate(0.043121 -8.092355 7.051263)" />
    <rect x="-9.596113" y="5.545943" width="1.0" height="1.0" transform="rotate(0.045692 -9.096113 6.045943)" />
    <rect x="-8.592310" y="5.547060" width="1.0" height="1.0" transform="rotate(0.036997 -8.092310 6.047060)" />
    <rect x="-7.584859" y="5.592727" width="1.0" height="1.0" transform="rotate(0.014126 -7.084859 6.092727)" />
    <rect x="-9.596026" y="4.541058" width="1.0" height="1.0" transform="rotate(0.073542 -9.096026 5.041058)" />
    <rect x="-8.592034" y="4.543168" width="1.0" height="1.0" transform="rotate(0.042671 -8.092034 5.043168)" />
    <rect x="-7.584383" y="4.590284" width="1.0" height="1.0" transform="rotate(0.052425 -7.084383 5.090284)" />
    <rect x="-6.578872" y="4.592969" width="1.0" height="1.0" transform="rotate(0.025948 -6.078872 5.092969)" />
    <rect x="-5.572456" y="5.600308" width="1.0" height="1.0" transform="rotate(0.000000 -5.072456 6.100308)" />
    <rect x="-9.595429" y="3.536855" width="1.0" height="1.0" transform="rotate(0.102137 -9.095429 4.036855)" />
    <rect x="-8.590745" y="3.538975" width="1.0" height="1.0" transform="rotate(0.119686 -8.090745 4.038975)" />
    <rect x="-7.583722" y="3.587746" width="1.0" height="1.0" transform="rotate(0.098472 -7.083722 4.087746)" />
    <rect x="-6.580191" y="3.591145" width="1.0" height="1.0" transform="rotate(0.050747 -6.080191 4.091145)" />
    <rect x="-5.572517" y="4.600308" width="1.0" height="1.0" transform="rotate(0.000000 -5.072517 5.100308)" />
    <rect x="-9.595807" y="2.490865" width="1.0" height="1.0" transform="rotate(0.084072 -9.095807 2.990865)" />
    <rect x="-8.588900" y="2.534923" width="1.0" height="1.0" transform="rotate(0.181473 -8.088900 3.034923)" />
    <rect x="-7.582908" y="2.584833" width="1.0" height="1.0" transform="rotate(0.106747 -7.082908 3.084833)" />
    <rect x="-6.579070" y="2.588552" width="1.0" height="1.0" transform="rotate(0.096876 -6.079070 3.088552)" />
    <rect x="-5.573037" y="3.600308" width="1.0" height="1.0" transform="rotate(0.000000 -5.073037 4.100308)" />
    <rect x="-4.514510" y="3.600308" width="1.0" height="1.0" transform="rotate(0.000000 -4.014510 4.100308)" />
    <rect x="-9.596694" y="1.484649" width="1.0" height="1.0" transform="rotate(0.060540 -9.096694 1.984649)" />
    <rect x="-8.590572" y="1.487603" width="1.0" height="1.0" transform="rotate(0.044423 -8.090572 1.987603)" />
    <rect x="-7.570433" y="1.579833" width="1.0" height="1.0" transform="rotate(0.466013 -7.070433 2.079833)" />
    <rect x="-6.530467" y="1.586329" width="1.0" height="1.0" transform="rotate(0.055498 -6.030467 2.086329)" />
    <rect x="-5.518996" y="2.600308" width="1.0" height="1.0" transform="rotate(0.000000 -5.018996 3.100308)" />
    <rect x="-4.515183" y="2.600308" width="1.0" height="1.0" transform="rotate(0.000000 -4.015183 3.100308)" />
    <rect x="-8.595049" y="0.480236" width="1.0" height="1.0" transform="rotate(0.061905 -8.095049 0.980236)" />
    <rect x="-7.591781" y="0.484533" width="1.0" height="1.0" transform="rotate(0.069973 -7.091781 0.984533)" />
    <rect x="-6.588578" y="0.582125" width="1.0" height="1.0" transform="rotate(0.122939 -6.088578 1.082125)" />
    <rect x="-5.521766" y="0.600308" width="1.0" height="1.0" transform="rotate(0.000000 -5.021766 1.100308)" />
    <rect x="-4.515857" y="1.600308" width="1.0" height="1.0" transform="rotate(0.000000 -4.015857 2.100308)" />
    <rect x="-7.592131" y="-0.522115" width="1.0" height="1.0" transform="rotate(0.052751 -7.092131 -0.022115)" />
    <rect x="-6.589018" y="-0.516973" width="1.0" height="1.0" transform="rotate(0.046040 -6.089018 -0.016973)" />
    <rect x="-5.584771" y="-0.399692" width="1.0" height="1.0" transform="rotate(0.000000 -5.084771 0.100308)" />
    <rect x="-4.516726" y="-0.399692" width="1.0" height="1.0" transform="rotate(0.000000 -4.016726 0.100308)" />
    <rect x="-8.600308" y="-1.533235" width="1.0" height="1.0" transform="rotate(0.000000 -8.100308 -1.033235)" />
    <rect x="-6.600308" y="-1.523326" width="1.0" height="1.0" transform="rotate(0.000000 -6.100308 -1.023326)" />
    <rect x="-5.600308" y="-1.518392" width="1.0" height="1.0" transform="rotate(0.000000 -5.100308 -1.018392)" />
    <rect x="-4.600308" y="-1.399692" width="1.0" height="1.0" transform="rotate(0.000000 -4.100308 -0.899692)" />
    <rect x="-5.600308" y="-2.585453" width="1.0" height="1.0" transform="rotate(90.000000 -5.100308 -2.085453)" />
    <rect x="-4.600308" y="-2.599822" width="1.0" height="1.0" transform="rotate(90.000000 -4.100308 -2.099822)" />
    <rect x="-4.566781" y="4.600308" width="1.0" height="1.0" transform="rotate(0.000000 -4.066781 5.100308)" />
    <rect x="-7.585216" y="6.595026" width="1.0" height="1.0" transform="rotate(89.997804 -7.085216 7.095026)" />
    <rect x="-6.578910" y="5.594649" width="1.0" height="1.0" transform="rotate(0.015281 -6.078910 6.094649)" />
    <rect x="-7.600308" y="-2.583045" width="1.0" height="1.0" transform="rotate(90.000000 -7.100308 -2.083045)" />
    <rect x="-6.598481" y="-3.586949" width="1.0" height="1.0" transform="rotate(89.997571 -6.098481 -3.086949)" />
    <rect x="-3.508857" y="2.591833" width="1.0" height="1.0" transform="rotate(0.027886 -3.008857 3.091833)" />
    <rect x="-3.508040" y="1.589866" width="1.0" height="1.0" transform="rotate(89.974113 -3.008040 2.089866)" />
    <rect x="-3.508271" y="0.587728" width="1.0" height="1.0" transform="rotate(89.953262 -3.008271 1.087728)" />
    <rect x="-3.465713" y="-0.461164" width="1.0" height="1.0" transform="rotate(5.498746 -2.965713 0.038836)" />
    <rect x="-4.592823" y="-3.599841" width="1.0" height="1.0" transform="rotate(0.000225 -4.092823 -3.099841)" />
    <rect x="-3.413307" y="-3.244391" width="1.0" height="1.0" transform="rotate(31.304235 -2.913307 -2.744391)" />
    <rect x="-3.493277" y="-2.006648" width="1.0" height="1.0" transform="rotate(44.219323 -2.993277 -1.506648)" />
    <rect x="-5.596368" y="-4.599911" width="1.0" height="1.0" transform="rotate(89.999931 -5.096368 -4.099911)" />
    <rect x="6.592960" y="-9.592461" width="1.0" height="1.0" transform="rotate(0.027031 7.092960 -9.092461)" />
    <rect x="6.592419" y="-8.585953" width="1.0" height="1.0" transform="rotate(0.011955 7.092419 -8.085953)" />
    <rect x="5.589628" y="-9.595270" width="1.0" height="1.0" transform="rotate(0.072673 6.089628 -9.095270)" />
    <rect x="5.589213" y="-8.589793" width="1.0" height="1.0" transform="rotate(0.007313 6.089213 -8.089793)" />
    <rect x="5.600308" y="-7.583054" width="1.0" height="1.0" transform="rotate(90.000000 6.100308 -7.083054)" />
    <rect x="4.585824" y="-9.600308" width="1.0" height="1.0" transform="rotate(0.000000 5.085824 -9.100308)" />
    <rect x="4.585892" y="-8.600308" width="1.0" height="1.0" transform="rotate(0.000000 5.085892 -8.100308)" />
    <rect x="4.600308" y="-7.586579" width="1.0" height="1.0" transform="rotate(90.000000 5.100308 -7.086579)" />
    <rect x="5.500867" y="-6.575138" width="1.0" height="1.0" transform="rotate(0.036938 6.000867 -6.075138)" />
    <rect x="5.600308" y="-5.555057" width="1.0" height="1.0" transform="rotate(90.000000 6.100308 -5.055057)" />
    <rect x="3.582562" y="-9.600308" width="1.0" height="1.0" transform="rotate(0.000000 4.082562 -9.100308)" />
    <rect x="3.583193" y="-8.600308" width="1.0" height="1.0" transform="rotate(0.000000 4.083193 -8.100308)" />
    <rect x="3.600308" y="-7.600308" width="1.0" height="1.0" transform="rotate(0.000000 4.100308 -7.100308)" />
    <rect x="4.364224" y="-6.582992" width="1.0" height="1.0" transform="rotate(0.005715 4.864224 -6.082992)" />
    <rect x="4.600308" y="-5.568939" width="1.0" height="1.0" transform="rotate(90.000000 5.100308 -5.068939)" />
    <rect x="1.416361" y="-9.600308" width="1.0" height="1.0" transform="rotate(90.000000 1.916361 -9.100308)" />
    <rect x="2.579108" y="-8.600308" width="1.0" height="1.0" transform="rotate(0.000000 3.079108 -8.100308)" />
    <rect x="2.423318" y="-7.600308" width="1.0" height="1.0" transform="rotate(0.000000 2.923318 -7.100308)" />
    <rect x="2.911465" y="-6.488061" width="1.0" height="1.0" transform="rotate(55.846110 3.411465 -5.988061)" />
    <rect x="3.419266" y="-5.580734" width="1.0" height="1.0" transform="rotate(60.604977 3.919266 -5.080734)" />
    <rect x="3.600308" y="-4.399692" width="1.0" height="1.0" transform="rotate(90.000000 4.100308 -3.899692)" />
    <rect x="0.412504" y="-9.600308" width="1.0" height="1.0" transform="rotate(90.000000 0.912504 -9.100308)" />
    <rect x="1.415971" y="-8.600308" width="1.0" height="1.0" transform="rotate(90.000000 1.915971 -8.100308)" />
    <rect x="1.399692" y="-7.600308" width="1.0" height="1.0" transform="rotate(90.000000 1.899692 -7.100308)" />
    <rect x="1.738635" y="-6.426445" width="1.0" height="1.0" transform="rotate(59.633953 2.238635 -5.926445)" />
    <rect x="2.276081" y="-5.572599" width="1.0" height="1.0" transform="rotate(60.604977 2.776081 -5.072599)" />
    <rect x="2.600308" y="-4.399692" width="1.0" height="1.0" transform="rotate(90.000000 3.100308 -3.899692)" />
    <rect x="-0.591740" y="-8.600308" width="1.0" height="1.0" transform="rotate(0.000000 -0.091740 -8.100308)" />
    <rect x="0.399692" y="-7.600308" width="1.0" height="1.0" transform="rotate(90.000000 0.899692 -7.100308)" />
    <rect x="0.407228" y="-6.596117" width="1.0" height="1.0" transform="rotate(89.964515 0.907228 -6.096117)" />
    <rect x="1.058811" y="-5.579550" width="1.0" height="1.0" transform="rotate(53.613511 1.558811 -5.079550)" />
    <rect x="1.566076" y="-4.438636" width="1.0" height="1.0" transform="rotate(86.615008 2.066076 -3.938636)" />
    <rect x="-1.600308" y="-7.600308" width="1.0" height="1.0" transform="rotate(90.000000 -1.100308 -7.100308)" />
    <rect x="-0.596574" y="-6.600308" width="1.0" height="1.0" transform="rotate(0.000000 -0.096574 -6.100308)" />
    <rect x="-0.140320" y="-5.592699" width="1.0" height="1.0" transform="rotate(0.000000 0.359680 -5.092699)" />
    <rect x="0.438706" y="-4.399692" width="1.0" height="1.0" transform="rotate(0.000000 0.938706 -3.899692)" />
    <rect x="-1.594856" y="-8.600308" width="1.0" height="1.0" transform="rotate(0.000000 -1.094856 -8.100308)" />
    <rect x="-1.600308" y="-6.600308" width="1.0" height="1.0" transform="rotate(90.000000 -1.100308 -6.100308)" />
    <rect x="-1.140320" y="-5.600308" width="1.0" height="1.0" transform="rotate(0.000000 -0.640320 -5.100308)" />
    <rect x="-0.561294" y="-4.499678" width="1.0" height="1.0" transform="rotate(0.000000 -0.061294 -3.999678)" />
    <rect x="-2.417101" y="-5.417101" width="1.0" height="1.0" transform="rotate(30.061043 -1.917101 -4.917101)" />
    <rect x="-1.744501" y="-4.582899" width="1.0" height="1.0" transform="rotate(30.061043 -1.244501 -4.082899)" />
    <rect x="4.600308" y="-4.551546" width="1.0" height="1.0" transform="rotate(90.000000 5.100308 -4.051546)" />
    <rect x="6.600308" y="-7.576643" width="1.0" height="1.0" transform="rotate(90.000000 7.100308 -7.076643)" />
    <rect x="6.590707" y="-6.562801" width="1.0" height="1.0" transform="rotate(0.053235 7.090707 -6.062801)" />
    <rect x="-2.600308" y="-7.600308" width="1.0" height="1.0" transform="rotate(0.000000 -2.100308 -7.100308)" />
    <rect x="-3.600308" y="-6.600034" width="1.0" height="1.0" transform="rotate(0.000000 -3.100308 -6.100034)" />
    <rect x="1.600308" y="-3.403664" width="1.0" height="1.0" transform="rotate(0.000000 2.100308 -2.903664)" />
    <rect x="0.600308" y="-3.399692" width="1.0" height="1.0" transform="rotate(0.000000 1.100308 -2.899692)" />
    <rect x="-0.399692" y="-3.399692" width="1.0" height="1.0" transform="rotate(0.000000 0.100308 -2.899692)" />
    <rect x="-1.399692" y="-3.399692" width="1.0" height="1.0" transform="rotate(0.000000 -0.899692 -2.899692)" />
    <rect x="-3.589249" y="-4.592519" width="1.0" height="1.0" transform="rotate(89.963346 -3.089249 -4.092519)" />
    <rect x="-2.581419" y="-3.908895" width="1.0" height="1.0" transform="rotate(31.304235 -2.081419 -3.408895)" />
    <rect x="-2.399692" y="-2.626687" width="1.0" height="1.0" transform="rotate(0.000000 -1.899692 -2.126687)" />
    <rect x="-4.600308" y="-5.599976" width="1.0" height="1.0" transform="rotate(0.000000 -4.100308 -5.099976)" />
    <rect x="8.598892" y="-9.590235" width="1.0" height="1.0" transform="rotate(0.007068 9.098892 -9.090235)" />
    <rect x="8.598734" y="-8.581331" width="1.0" height="1.0" transform="rotate(0.016095 9.098734 -8.081331)" />
    <rect x="7.600308" y="-7.573067" width="1.0" height="1.0" transform="rotate(90.000000 8.100308 -7.073067)" />
    <rect x="8.598253" y="-6.559232" width="1.0" height="1.0" transform="rotate(0.042552 9.098253 -6.059232)" />
    <rect x="8.600308" y="-5.549760" width="1.0" height="1.0" transform="rotate(90.000000 9.100308 -5.049760)" />
    <rect x="8.600308" y="-4.541644" width="1.0" height="1.0" transform="rotate(0.000000 9.100308 -4.041644)" />
    <rect x="8.600308" y="-3.533809" width="1.0" height="1.0" transform="rotate(0.000000 9.100308 -3.033809)" />
    <rect x="8.600308" y="-2.526667" width="1.0" height="1.0" transform="rotate(0.000000 9.100308 -2.026667)" />
    <rect x="8.600308" y="-1.520072" width="1.0" height="1.0" transform="rotate(0.000000 9.100308 -1.020072)" />
    <rect x="8.600308" y="-0.514015" width="1.0" height="1.0" transform="rotate(0.000000 9.100308 -0.014015)" />
    <rect x="8.600308" y="1.497576" width="1.0" height="1.0" transform="rotate(0.000000 9.100308 1.997576)" />
    <rect x="8.600308" y="2.501642" width="1.0" height="1.0" transform="rotate(0.000000 9.100308 3.001642)" />
    <rect x="8.543398" y="3.506661" width="1.0" height="1.0" transform="rotate(0.037824 9.043398 4.006661)" />
    <rect x="8.542908" y="4.511083" width="1.0" height="1.0" transform="rotate(0.035616 9.042908 5.011083)" />
    <rect x="8.542538" y="5.515566" width="1.0" height="1.0" transform="rotate(0.043350 9.042538 6.015566)" />
    <rect x="8.542177" y="6.519950" width="1.0" height="1.0" transform="rotate(0.056293 9.042177 7.019950)" />
    <rect x="8.541600" y="7.524042" width="1.0" height="1.0" transform="rotate(0.054794 9.041600 8.024042)" />
    <rect x="8.540558" y="8.527986" width="1.0" height="1.0" transform="rotate(0.060898 9.040558 9.027986)" />
    <rect x="-9.597334" y="8.558992" width="1.0" height="1.0" transform="rotate(0.018689 -9.097334 9.058992)" />
    <rect x="-8.592189" y="8.559027" width="1.0" height="1.0" transform="rotate(0.032932 -8.092189 9.059027)" />
    <rect x="-7.585656" y="7.597154" width="1.0" height="1.0" transform="rotate(89.997495 -7.085656 8.097154)" />
    <rect x="-6.580260" y="8.599511" width="1.0" height="1.0" transform="rotate(0.003002 -6.080260 9.099511)" />
    <rect x="-5.573803" y="8.600308" width="1.0" height="1.0" transform="rotate(0.000000 -5.073803 9.100308)" />
    <rect x="-4.567398" y="8.600308" width="1.0" height="1.0" transform="rotate(90.000000 -4.067398 9.100308)" />
    <rect x="-2.514849" y="8.600308" width="1.0" height="1.0" transform="rotate(0.000000 -2.014849 9.100308)" />
    <rect x="-1.504475" y="8.600308" width="1.0" height="1.0" transform="rotate(90.000000 -1.004475 9.100308)" />
    <rect x="-0.498127" y="8.600308" width="1.0" height="1.0" transform="rotate(90.000000 0.001873 9.100308)" />
    <rect x="0.507181" y="8.600308" width="1.0" height="1.0" transform="rotate(0.000000 1.007181 9.100308)" />
    <rect x="1.512121" y="8.600308" width="1.0" height="1.0" transform="rotate(90.000000 2.012121 9.100308)" />
    <rect x="2.516787" y="8.600308" width="1.0" height="1.0" transform="rotate(0.000000 3.016787 9.100308)" />
    <rect x="3.521237" y="8.600308" width="1.0" height="1.0" transform="rotate(90.000000 4.021237 9.100308)" />
    <rect x="4.525476" y="8.600308" width="1.0" height="1.0" transform="rotate(90.000000 5.025476 9.100308)" />
    <rect x="5.529071" y="8.599949" width="1.0" height="1.0" transform="rotate(89.995833 6.029071 9.099949)" />
    <rect x="6.533401" y="8.525780" width="1.0" height="1.0" transform="rotate(0.044755 7.033401 9.025780)" />
    <rect x="7.537204" y="8.526511" width="1.0" height="1.0" transform="rotate(0.049385 8.037204 9.026511)" />
    <rect x="-7.586087" y="8.599266" width="1.0" height="1.0" transform="rotate(0.002228 -7.086087 9.099266)" />
    <rect x="8.600308" y="-7.568861" width="1.0" height="1.0" transform="rotate(0.000000 9.100308 -7.068861)" />
    <rect x="-3.600308" y="-5.599974" width="1.0" height="1.0" transform="rotate(0.000000 -3.100308 -5.099974)" />
    <rect x="-6.600308" y="-2.584231" width="1.0" height="1.0" transform="rotate(90.000000 -6.100308 -2.084231)" />
    <rect x="-2.600308" y="-6.600308" width="1.0" height="1.0" transform="rotate(0.000000 -2.100308 -6.100308)" />
    <rect x="-5.597789" y="-3.599841" width="1.0" height="1.0" transform="rotate(0.000015 -5.097789 -3.099841)" />
    <rect x="-6.579713" y="7.597904" width="1.0" height="1.0" transform="rotate(0.006277 -6.079713 8.097904)" />
    <rect x="-7.600308" y="-1.526481" width="1.0" height="1.0" transform="rotate(0.000000 -7.100308 -1.026481)" />
    <rect x="-8.595339" y="-0.524765" width="1.0" height="1.0" transform="rotate(0.071488 -8.095339 -0.024765)" />
    <rect x="-9.597937" y="0.477506" width="1.0" height="1.0" transform="rotate(0.054056 -9.097937 0.977506)" />
    <rect x="-0.600308" y="-7.600308" width="1.0" height="1.0" transform="rotate(0.000000 -0.100308 -7.100308)" />
    <rect x="0.412055" y="-8.600308" width="1.0" height="1.0" transform="rotate(90.000000 0.912055 -8.100308)" />
    <rect x="2.420522" y="-9.600308" width="1.0" height="1.0" transform="rotate(0.000000 2.920522 -9.100308)" />
    <rect x="-5.519814" y="1.600308" width="1.0" height="1.0" transform="rotate(0.000000 -5.019814 2.100308)" />
    <rect x="-4.514397" y="0.600308" width="1.0" height="1.0" transform="rotate(0.000000 -4.014397 1.100308)" />
  </g>
</svg>
