<?xml version="1.0" encoding="UTF-8"?>
<svg xmlns="http://www.w3.org/2000/svg" viewBox="-9.582458 -9.582458 19.164915 19.164915" width="900" height="900">
  <rect x="-9.582458" y="-9.582458" width="19.164915" height="19.164915" fill="#f8fafc" stroke="#0f172a" stroke-width="0.05"/>
  <g fill="#38bdf8" stroke="#0369a1" stroke-width="0.015">
    <rect x="-9.582273" y="7.581792" width="1.0" height="1.0" transform="rotate(0.000051 -9.082273 8.081792)" />
    <rect x="-8.581829" y="7.582458" width="1.0" height="1.0" transform="rotate(0.000000 -8.081829 8.082458)" />
    <rect x="7.581800" y="-9.582278" width="1.0" height="1.0" transform="rotate(0.000856 8.081800 -9.082278)" />
    <rect x="7.582458" y="-8.581851" width="1.0" height="1.0" transform="rotate(90.000000 8.082458 -8.081851)" />
    <rect x="-9.582458" y="-0.582458" width="1.0" height="1.0" transform="rotate(0.000000 -9.082458 -0.082458)" />
    <rect x="-9.582458" y="-1.582458" width="1.0" height="1.0" transform="rotate(90.000000 -9.082458 -1.082458)" />
    <rect x="-9.582458" y="-2.582458" width="1.0" height="1.0" transform="rotate(90.000000 -9.082458 -2.082458)" />
    <rect x="-8.582458" y="-2.582458" width="1.0" height="1.0" transform="rotate(90.000000 -8.082458 -2.082458)" />
    <rect x="-9.582458" y="-3.582458" width="1.0" height="1.0" transform="rotate(90.000000 -9.082458 -3.082458)" />
    <rect x="-8.582458" y="-3.582458" width="1.0" height="1.0" transform="rotate(90.000000 -8.082458 -3.082458)" />
    <rect x="-7.582458" y="-3.582458" width="1.0" height="1.0" transform="rotate(90.000000 -7.082458 -3.082458)" />
    <rect x="-9.582458" y="-4.582458" width="1.0" height="1.0" transform="rotate(90.000000 -9.082458 -4.082458)" />
    <rect x="-8.582458" y="-4.582458" width="1.0" height="1.0" transform="rotate(90.000000 -8.082458 -4.082458)" />
    <rect x="-7.582458" y="-4.582458" width="1.0" height="1.0" transform="rotate(90.000000 -7.082458 -4.082458)" />
    <rect x="-6.582458" y="-4.582458" width="1.0" height="1.0" transform="rotate(90.000000 -6.082458 -4.082458)" />
    <rect x="-9.582458" y="-5.582458" width="1.0" height="1.0" transform="rotate(90.000000 -9.082458 -5.082458)" />
    <rect x="-8.582458" y="-5.582458" width="1.0" height="1.0" transform="rotate(90.000000 -8.082458 -5.082458)" />
    <rect x="-7.582458" y="-5.582458" width="1.0" height="1.0" transform="rotate(90.000000 -7.082458 -5.082458)" />
    <rect x="-6.582458" y="-5.582458" width="1.0" height="1.0" transform="rotate(0.000000 -6.082458 -5.082458)" />
    <rect x="-5.582458" y="-5.582458" width="1.0" height="1.0" transform="rotate(90.000000 -5.082458 -5.082458)" />
    <rect x="-9.582458" y="-6.582458" width="1.0" height="1.0" transform="rotate(0.000000 -9.082458 -6.082458)" />
    <rect x="-8.582458" y="-6.582458" width="1.0" height="1.0" transform="rotate(0.000000 -8.082458 -6.082458)" />
    <rect x="-7.582458" y="-6.582458" width="1.0" height="1.0" transform="rotate(0.000000 -7.082458 -6.082458)" />
    <rect x="-6.582458" y="-6.582458" width="1.0" height="1.0" transform="rotate(0.000000 -6.082458 -6.082458)" />
    <rect x="-5.582458" y="-6.582458" width="1.0" height="1.0" transform="rotate(90.000000 -5.082458 -6.082458)" />
    <rect x="-4.582458" y="-6.582458" width="1.0" height="1.0" transform="rotate(90.000000 -4.082458 -6.082458)" />
    <rect x="-9.582458" y="-7.582458" width="1.0" height="1.0" transform="rotate(0.000000 -9.082458 -7.082458)" />
    <rect x="-8.582458" y="-7.582458" width="1.0" height="1.0" transform="rotate(0.000000 -8.082458 -7.082458)" />
    <rect x="-7.582458" y="-7.582458" width="1.0" height="1.0" transform="rotate(0.000000 -7.082458 -7.082458)" />
    <rect x="-6.582458" y="-7.582458" width="1.0" height="1.0" transform="rotate(90.000000 -6.082458 -7.082458)" />
    <rect x="-5.582458" y="-7.582458" width="1.0" height="1.0" transform="rotate(90.000000 -5.082458 -7.082458)" />
    <rect x="-4.582458" y="-7.582458" width="1.0" height="1.0" transform="rotate(90.000000 -4.082458 -7.082458)" />
    <rect x="-3.582458" y="-7.582458" width="1.0" height="1.0" transform="rotate(90.000000 -3.082458 -7.082458)" />
    <rect x="-9.582458" y="-8.582458" width="1.0" height="1.0" transform="rotate(0.000000 -9.082458 -8.082458)" />
    <rect x="-8.582458" y="-8.582458" width="1.0" height="1.0" transform="rotate(0.000000 -8.082458 -8.082458)" />
    <rect x="-7.582458" y="-8.582458" width="1.0" height="1.0" transform="rotate(0.000000 -7.082458 -8.082458)" />
    <rect x="-6.582458" y="-8.582458" width="1.0" height="1.0" transform="rotate(90.000000 -6.082458 -8.082458)" />
    <rect x="-5.582458" y="-8.582458" width="1.0" height="1.0" transform="rotate(90.000000 -5.082458 -8.082458)" />
    <rect x="-4.582458" y="-8.582458" width="1.0" height="1.0" transform="rotate(90.000000 -4.082458 -8.082458)" />
    <rect x="-3.582458" y="-8.582458" width="1.0" height="1.0" transform="rotate(90.000000 -3.082458 -8.082458)" />
    <rect x="-2.582458" y="-8.582458" width="1.0" height="1.0" transform="rotate(0.000000 -2.082458 -8.082458)" />
    <rect x="-9.582458" y="-9.582458" width="1.0" height="1.0" transform="rotate(0.000000 -9.082458 -9.082458)" />
    <rect x="-8.582458" y="-9.582458" width="1.0" height="1.0" transform="rotate(0.000000 -8.082458 -9.082458)" />
    <rect x="-7.582458" y="-9.582458" width="1.0" height="1.0" transform="rotate(0.000000 -7.082458 -9.082458)" />
    <rect x="-6.582458" y="-9.582458" width="1.0" height="1.0" transform="rotate(90.000000 -6.082458 -9.082458)" />
    <rect x="-5.582458" y="-9.582458" width="1.0" height="1.0" transform="rotate(90.000000 -5.082458 -9.082458)" />
    <rect x="-4.582458" y="-9.582458" width="1.0" height="1.0" transform="rotate(0.000000 -4.082458 -9.082458)" />
    <rect x="-3.582458" y="-9.582458" width="1.0" height="1.0" transform="rotate(0.000000 -3.082458 -9.082458)" />
    <rect x="-2.582458" y="-9.582458" width="1.0" height="1.0" transform="rotate(0.000000 -2.082458 -9.082458)" />
    <rect x="-1.582458" y="-9.582458" width="1.0" height="1.0" transform="rotate(0.000000 -1.082458 -9.082458)" />
    <rect x="-0.582458" y="-9.582458" width="1.0" height="1.0" transform="rotate(90.000000 -0.082458 -9.082458)" />
    <rect x="-6.498304" y="7.503255" width="1.0" height="1.0" transform="rotate(9.838812 -5.998304 8.003255)" />
    <rect x="-5.419849" y="7.582458" width="1.0" height="1.0" transform="rotate(0.000000 -4.919849 8.082458)" />
    <rect x="-4.419462" y="7.582458" width="1.0" height="1.0" transform="rotate(0.000000 -3.919462 8.082458)" />
    <rect x="-3.419098" y="8.582458" width="1.0" height="1.0" transform="rotate(0.000000 -2.919098 9.082458)" />
    <rect x="-2.418736" y="7.582458" width="1.0" height="1.0" transform="rotate(0.000000 -1.918736 8.082458)" />
    <rect x="-1.418548" y="7.582458" width="1.0" height="1.0" transform="rotate(90.000000 -0.918548 8.082458)" />
    <rect x="-0.418353" y="7.582458" width="1.0" height="1.0" transform="rotate(90.000000 0.081647 8.082458)" />
    <rect x="0.581832" y="7.582458" width="1.0" height="1.0" transform="rotate(90.000000 1.081832 8.082458)" />
    <rect x="1.582458" y="7.582458" width="1.0" height="1.0" transform="rotate(0.000000 2.082458 8.082458)" />
    <rect x="2.582458" y="7.582458" width="1.0" height="1.0" transform="rotate(90.000000 3.082458 8.082458)" />
    <rect x="3.582458" y="7.582458" width="1.0" height="1.0" transform="rotate(90.000000 4.082458 8.082458)" />
    <rect x="4.582458" y="7.582458" width="1.0" height="1.0" transform="rotate(90.000000 5.082458 8.082458)" />
    <rect x="5.582458" y="7.582458" width="1.0" height="1.0" transform="rotate(90.000000 6.082458 8.082458)" />
    <rect x="6.582458" y="7.582458" width="1.0" height="1.0" transform="rotate(90.000000 7.082458 8.082458)" />
    <rect x="7.582458" y="7.582458" width="1.0" height="1.0" transform="rotate(0.000000 8.082458 8.082458)" />
    <rect x="-5.494229" y="6.582458" width="1.0" height="1.0" transform="rotate(0.000000 -4.994229 7.082458)" />
    <rect x="-4.417542" y="5.582458" width="1.0" height="1.0" transform="rotate(0.000000 -3.917542 6.082458)" />
    <rect x="-3.419030" y="7.582458" width="1.0" height="1.0" transform="rotate(0.000000 -2.919030 8.082458)" />
    <rect x="-2.417542" y="6.582458" width="1.0" height="1.0" transform="rotate(0.000000 -1.917542 7.082458)" />
    <rect x="-1.417542" y="6.582458" width="1.0" height="1.0" transform="rotate(90.000000 -0.917542 7.082458)" />
    <rect x="-0.417542" y="6.582458" width="1.0" height="1.0" transform="rotate(90.000000 0.082458 7.082458)" />
    <rect x="0.582458" y="6.582458" width="1.0" height="1.0" transform="rotate(90.000000 1.082458 7.082458)" />
    <rect x="1.582458" y="6.582458" width="1.0" height="1.0" transform="rotate(90.000000 2.082458 7.082458)" />
    <rect x="2.582458" y="6.582458" width="1.0" height="1.0" transform="rotate(90.000000 3.082458 7.082458)" />
    <rect x="3.582458" y="6.582458" width="1.0" height="1.0" transform="rotate(90.000000 4.082458 7.082458)" />
    <rect x="4.582458" y="6.582458" width="1.0" height="1.0" transform="rotate(90.000000 5.082458 7.082458)" />
    <rect x="5.582458" y="6.582458" width="1.0" height="1.0" transform="rotate(90.000000 6.082458 7.082458)" />
    <rect x="6.582458" y="6.582458" width="1.0" height="1.0" transform="rotate(90.000000 7.082458 7.082458)" />
    <rect x="7.582458" y="6.582458" width="1.0" height="1.0" transform="rotate(0.000000 8.082458 7.082458)" />
    <rect x="-4.419339" y="6.582458" width="1.0" height="1.0" transform="rotate(0.000000 -3.919339 7.082458)" />
    <rect x="-3.418930" y="6.582458" width="1.0" height="1.0" transform="rotate(0.000000 -2.918930 7.082458)" />
    <rect x="-2.417542" y="5.582458" width="1.0" height="1.0" transform="rotate(0.000000 -1.917542 6.082458)" />
    <rect x="-1.417542" y="5.582458" width="1.0" height="1.0" transform="rotate(90.000000 -0.917542 6.082458)" />
    <rect x="-0.417542" y="5.582458" width="1.0" height="1.0" transform="rotate(90.000000 0.082458 6.082458)" />
    <rect x="0.582458" y="5.582458" width="1.0" height="1.0" transform="rotate(90.000000 1.082458 6.082458)" />
    <rect x="1.582458" y="5.582458" width="1.0" height="1.0" transform="rotate(90.000000 2.082458 6.082458)" />
    <rect x="2.582458" y="5.582458" width="1.0" height="1.0" transform="rotate(90.000000 3.082458 6.082458)" />
    <rect x="3.582458" y="5.582458" width="1.0" height="1.0" transform="rotate(90.000000 4.082458 6.082458)" />
    <rect x="4.582458" y="5.582458" width="1.0" height="1.0" transform="rotate(0.000000 5.082458 6.082458)" />
    <rect x="5.582458" y="5.582458" width="1.0" height="1.0" transform="rotate(0.000000 6.082458 6.082458)" />
    <rect x="6.582458" y="5.582458" width="1.0" height="1.0" transform="rotate(0.000000 7.082458 6.082458)" />
    <rect x="7.582458" y="5.582458" width="1.0" height="1.0" transform="rotate(0.000000 8.082458 6.082458)" />
    <rect x="-3.417542" y="5.582458" width="1.0" height="1.0" transform="rotate(0.000000 -2.917542 6.082458)" />
    <rect x="-2.417542" y="4.582458" width="1.0" height="1.0" transform="rotate(0.000000 -1.917542 5.082458)" />
    <rect x="-1.417542" y="4.582458" width="1.0" height="1.0" transform="rotate(90.000000 -0.917542 5.082458)" />
    <rect x="-0.417542" y="4.582458" width="1.0" height="1.0" transform="rotate(90.000000 0.082458 5.082458)" />
    <rect x="0.582458" y="4.582458" width="1.0" height="1.0" transform="rotate(90.000000 1.082458 5.082458)" />
    <rect x="1.582458" y="4.582458" width="1.0" height="1.0" transform="rotate(0.000000 2.082458 5.082458)" />
    <rect x="2.582458" y="4.582458" width="1.0" height="1.0" transform="rotate(0.000000 3.082458 5.082458)" />
    <rect x="3.582458" y="4.582458" width="1.0" height="1.0" transform="rotate(0.000000 4.082458 5.082458)" />
    <rect x="4.582458" y="4.582458" width="1.0" height="1.0" transform="rotate(0.000000 5.082458 5.082458)" />
    <rect x="5.582458" y="4.582458" width="1.0" height="1.0" transform="rotate(0.000000 6.082458 5.082458)" />
    <rect x="6.582458" y="4.582458" width="1.0" height="1.0" transform="rotate(0.000000 7.082458 5.082458)" />
    <rect x="7.582458" y="4.582458" width="1.0" height="1.0" transform="rotate(0.000000 8.082458 5.082458)" />
    <rect x="-3.417542" y="4.582458" width="1.0" height="1.0" transform="rotate(0.000000 -2.917542 5.082458)" />
    <rect x="-2.417542" y="3.582458" width="1.0" height="1.0" transform="rotate(0.000000 -1.917542 4.082458)" />
    <rect x="-1.417542" y="3.582458" width="1.0" height="1.0" transform="rotate(0.000000 -0.917542 4.082458)" />
    <rect x="-0.417542" y="3.582458" width="1.0" height="1.0" transform="rotate(90.000000 0.082458 4.082458)" />
    <rect x="0.582458" y="3.582458" width="1.0" height="1.0" transform="rotate(90.000000 1.082458 4.082458)" />
    <rect x="1.582458" y="3.582458" width="1.0" height="1.0" transform="rotate(0.000000 2.082458 4.082458)" />
    <rect x="2.582458" y="3.582458" width="1.0" height="1.0" transform="rotate(0.000000 3.082458 4.082458)" />
    <rect x="3.582458" y="3.582458" width="1.0" height="1.0" transform="rotate(0.000000 4.082458 4.082458)" />
    <rect x="4.582458" y="3.582458" width="1.0" height="1.0" transform="rotate(0.000000 5.082458 4.082458)" />
    <rect x="5.582458" y="3.582458" width="1.0" height="1.0" transform="rotate(0.000000 6.082458 4.082458)" />
    <rect x="6.582458" y="3.582458" width="1.0" height="1.0" transform="rotate(0.000000 7.082458 4.082458)" />
    <rect x="7.582458" y="3.582458" width="1.0" height="1.0" transform="rotate(0.000000 8.082458 4.082458)" />
    <rect x="-3.417542" y="3.582458" width="1.0" height="1.0" transform="rotate(0.000000 -2.917542 4.082458)" />
    <rect x="-2.417542" y="2.582458" width="1.0" height="1.0" transform="rotate(0.000000 -1.917542 3.082458)" />
    <rect x="-1.417542" y="2.582458" width="1.0" height="1.0" transform="rotate(0.000000 -0.917542 3.082458)" />
    <rect x="-0.417542" y="2.582458" width="1.0" height="1.0" transform="rotate(90.000000 0.082458 3.082458)" />
    <rect x="0.582458" y="2.582458" width="1.0" height="1.0" transform="rotate(90.000000 1.082458 3.082458)" />
    <rect x="1.582458" y="2.582458" width="1.0" height="1.0" transform="rotate(90.000000 2.082458 3.082458)" />
    <rect x="2.582458" y="2.582458" width="1.0" height="1.0" transform="rotate(90.000000 3.082458 3.082458)" />
    <rect x="3.582458" y="2.582458" width="1.0" height="1.0" transform="rotate(90.000000 4.082458 3.082458)" />
    <rect x="4.582458" y="2.582458" width="1.0" height="1.0" transform="rotate(0.000000 5.082458 3.082458)" />
    <rect x="5.582458" y="2.582458" width="1.0" height="1.0" transform="rotate(0.000000 6.082458 3.082458)" />
    <rect x="6.582458" y="2.582458" width="1.0" height="1.0" transform="rotate(0.000000 7.082458 3.082458)" />
    <rect x="7.582458" y="2.582458" width="1.0" height="1.0" transform="rotate(0.000000 8.082458 3.082458)" />
    <rect x="-2.418095" y="1.582458" width="1.0" height="1.0" transform="rotate(0.000000 -1.918095 2.082458)" />
    <rect x="-1.417542" y="1.582458" width="1.0" height="1.0" transform="rotate(0.000000 -0.917542 2.082458)" />
    <rect x="-0.417542" y="1.582458" width="1.0" height="1.0" transform="rotate(90.000000 0.082458 2.082458)" />
    <rect x="0.582458" y="1.582458" width="1.0" height="1.0" transform="rotate(90.000000 1.082458 2.082458)" />
    <rect x="1.582458" y="1.582458" width="1.0" height="1.0" transform="rotate(90.000000 2.082458 2.082458)" />
    <rect x="2.582458" y="1.582458" width="1.0" height="1.0" transform="rotate(90.000000 3.082458 2.082458)" />
    <rect x="3.582458" y="1.582458" width="1.0" height="1.0" transform="rotate(90.000000 4.082458 2.082458)" />
    <rect x="4.582458" y="1.582458" width="1.0" height="1.0" transform="rotate(0.000000 5.082458 2.082458)" />
    <rect x="5.582458" y="1.582458" width="1.0" height="1.0" transform="rotate(0.000000 6.082458 2.082458)" />
    <rect x="6.582458" y="1.582458" width="1.0" height="1.0" transform="rotate(0.000000 7.082458 2.082458)" />
    <rect x="7.582458" y="1.582458" width="1.0" height="1.0" transform="rotate(0.000000 8.082458 2.082458)" />
    <rect x="-1.417542" y="0.582458" width="1.0" height="1.0" transform="rotate(0.000000 -0.917542 1.082458)" />
    <rect x="-0.417542" y="0.582458" width="1.0" height="1.0" transform="rotate(0.000000 0.082458 1.082458)" />
    <rect x="0.582458" y="0.582458" width="1.0" height="1.0" transform="rotate(90.000000 1.082458 1.082458)" />
    <rect x="1.582458" y="0.582108" width="1.0" height="1.0" transform="rotate(90.000000 2.082458 1.082108)" />
    <rect x="2.582458" y="0.582458" width="1.0" height="1.0" transform="rotate(90.000000 3.082458 1.082458)" />
    <rect x="3.582458" y="0.582458" width="1.0" height="1.0" transform="rotate(90.000000 4.082458 1.082458)" />
    <rect x="4.582458" y="0.582458" width="1.0" height="1.0" transform="rotate(0.000000 5.082458 1.082458)" />
    <rect x="5.582458" y="0.582458" width="1.0" height="1.0" transform="rotate(0.000000 6.082458 1.082458)" />
    <rect x="6.582458" y="0.582458" width="1.0" height="1.0" transform="rotate(90.000000 7.082458 1.082458)" />
    <rect x="7.582458" y="0.581819" width="1.0" height="1.0" transform="rotate(90.000000 8.082458 1.081819)" />
    <rect x="8.582458" y="0.581818" width="1.0" height="1.0" transform="rotate(90.000000 9.082458 1.081818)" />
    <rect x="-2.417542" y="0.582458" width="1.0" height="1.0" transform="rotate(0.000000 -1.917542 1.082458)" />
    <rect x="-1.417994" y="-0.417542" width="1.0" height="1.0" transform="rotate(0.000000 -0.917994 0.082458)" />
    <rect x="-0.417542" y="-0.417542" width="1.0" height="1.0" transform="rotate(0.000000 0.082458 0.082458)" />
    <rect x="0.582458" y="-0.417542" width="1.0" height="1.0" transform="rotate(90.000000 1.082458 0.082458)" />
    <rect x="1.582458" y="-0.418094" width="1.0" height="1.0" transform="rotate(90.000000 2.082458 0.081906)" />
    <rect x="2.582458" y="-0.417542" width="1.0" height="1.0" transform="rotate(90.000000 3.082458 0.082458)" />
    <rect x="3.582458" y="-0.417542" width="1.0" height="1.0" transform="rotate(90.000000 4.082458 0.082458)" />
    <rect x="4.582458" y="-0.417542" width="1.0" height="1.0" transform="rotate(0.000000 5.082458 0.082458)" />
    <rect x="5.582458" y="-0.417542" width="1.0" height="1.0" transform="rotate(0.000000 6.082458 0.082458)" />
    <rect x="6.582458" y="-0.417542" width="1.0" height="1.0" transform="rotate(90.000000 7.082458 0.082458)" />
    <rect x="7.582458" y="-0.418359" width="1.0" height="1.0" transform="rotate(90.000000 8.082458 0.081641)" />
    <rect x="-2.418331" y="-0.417542" width="1.0" height="1.0" transform="rotate(0.000000 -1.918331 0.082458)" />
    <rect x="-1.417542" y="-1.417542" width="1.0" height="1.0" transform="rotate(0.000000 -0.917542 -0.917542)" />
    <rect x="-0.417542" y="-1.417542" width="1.0" height="1.0" transform="rotate(0.000000 0.082458 -0.917542)" />
    <rect x="0.582458" y="-1.417542" width="1.0" height="1.0" transform="rotate(90.000000 1.082458 -0.917542)" />
    <rect x="1.582458" y="-1.418300" width="1.0" height="1.0" transform="rotate(0.000000 2.082458 -0.918300)" />
    <rect x="2.582458" y="-1.417542" width="1.0" height="1.0" transform="rotate(90.000000 3.082458 -0.917542)" />
    <rect x="3.582458" y="-1.417542" width="1.0" height="1.0" transform="rotate(90.000000 4.082458 -0.917542)" />
    <rect x="4.582458" y="-1.417542" width="1.0" height="1.0" transform="rotate(0.000000 5.082458 -0.917542)" />
    <rect x="5.582458" y="-1.417542" width="1.0" height="1.0" transform="rotate(0.000000 6.082458 -0.917542)" />
    <rect x="6.582458" y="-1.417542" width="1.0" height="1.0" transform="rotate(90.000000 7.082458 -0.917542)" />
    <rect x="7.582458" y="-1.418527" width="1.0" height="1.0" transform="rotate(90.000000 8.082458 -0.918527)" />
    <rect x="-2.417542" y="-1.417542" width="1.0" height="1.0" transform="rotate(0.000000 -1.917542 -0.917542)" />
    <rect x="-1.417542" y="-2.417542" width="1.0" height="1.0" transform="rotate(90.000000 -0.917542 -1.917542)" />
    <rect x="-0.417542" y="-2.417542" width="1.0" height="1.0" transform="rotate(90.000000 0.082458 -1.917542)" />
    <rect x="0.582458" y="-2.417542" width="1.0" height="1.0" transform="rotate(90.000000 1.082458 -1.917542)" />
    <rect x="1.582458" y="-2.418568" width="1.0" height="1.0" transform="rotate(90.000000 2.082458 -1.918568)" />
    <rect x="2.582458" y="-2.417542" width="1.0" height="1.0" transform="rotate(90.000000 3.082458 -1.917542)" />
    <rect x="3.582458" y="-3.417542" width="1.0" height="1.0" transform="rotate(90.000000 4.082458 -2.917542)" />
    <rect x="4.582458" y="-2.417542" width="1.0" height="1.0" transform="rotate(0.000000 5.082458 -1.917542)" />
    <rect x="5.582458" y="-2.417542" width="1.0" height="1.0" transform="rotate(90.000000 6.082458 -1.917542)" />
    <rect x="6.582458" y="-2.418704" width="1.0" height="1.0" transform="rotate(0.000000 7.082458 -1.918704)" />
    <rect x="7.582458" y="-2.418783" width="1.0" height="1.0" transform="rotate(0.000000 8.082458 -1.918783)" />
    <rect x="2.582458" y="-3.417542" width="1.0" height="1.0" transform="rotate(90.000000 3.082458 -2.917542)" />
    <rect x="3.582458" y="-2.417542" width="1.0" height="1.0" transform="rotate(90.000000 4.082458 -1.917542)" />
    <rect x="4.582458" y="-3.417542" width="1.0" height="1.0" transform="rotate(90.000000 5.082458 -2.917542)" />
    <rect x="5.582458" y="-3.417542" width="1.0" height="1.0" transform="rotate(90.000000 6.082458 -2.917542)" />
    <rect x="6.582458" y="-3.419060" width="1.0" height="1.0" transform="rotate(90.000000 7.082458 -2.919060)" />
    <rect x="7.582458" y="-3.419126" width="1.0" height="1.0" transform="rotate(90.000000 8.082458 -2.919126)" />
    <rect x="5.582458" y="-4.417542" width="1.0" height="1.0" transform="rotate(90.000000 6.082458 -3.917542)" />
    <rect x="6.582458" y="-4.419436" width="1.0" height="1.0" transform="rotate(90.000000 7.082458 -3.919436)" />
    <rect x="7.582458" y="-4.419541" width="1.0" height="1.0" transform="rotate(90.000000 8.082458 -3.919541)" />
    <rect x="6.582458" y="-5.466141" width="1.0" height="1.0" transform="rotate(90.000000 7.082458 -4.966141)" />
    <rect x="7.582458" y="-5.419932" width="1.0" height="1.0" transform="rotate(90.000000 8.082458 -4.919932)" />
    <rect x="7.521522" y="-6.524219" width="1.0" height="1.0" transform="rotate(83.070806 8.021522 -6.024219)" />
    <rect x="-4.582458" y="-4.582458" width="1.0" height="1.0" transform="rotate(90.000000 -4.082458 -4.082458)" />
    <rect x="-9.582245" y="6.460455" width="1.0" height="1.0" transform="rotate(89.999994 -9.082245 6.960455)" />
    <rect x="-8.581807" y="6.582458" width="1.0" height="1.0" transform="rotate(0.000000 -8.081807 7.082458)" />
    <rect x="-9.582458" y="5.262849" width="1.0" height="1.0" transform="rotate(0.000000 -9.082458 5.762849)" />
    <rect x="-8.582458" y="5.460023" width="1.0" height="1.0" transform="rotate(0.000000 -8.082458 5.960023)" />
    <rect x="-7.582458" y="5.582458" width="1.0" height="1.0" transform="rotate(0.000000 -7.082458 6.082458)" />
    <rect x="-9.522565" y="4.076499" width="1.0" height="1.0" transform="rotate(7.354772 -9.022565 4.576499)" />
    <rect x="-8.546662" y="4.327456" width="1.0" height="1.0" transform="rotate(7.354772 -8.046662 4.827456)" />
    <rect x="-7.563549" y="4.522565" width="1.0" height="1.0" transform="rotate(7.354772 -7.063549 5.022565)" />
    <rect x="-6.446709" y="4.868251" width="1.0" height="1.0" transform="rotate(29.564844 -5.946709 5.368251)" />
    <rect x="-5.599145" y="5.400855" width="1.0" height="1.0" transform="rotate(29.564844 -5.099145 5.900855)" />
    <rect x="-9.464560" y="2.965217" width="1.0" height="1.0" transform="rotate(15.907896 -8.964560 3.465217)" />
    <rect x="-8.507192" y="3.254523" width="1.0" height="1.0" transform="rotate(15.907896 -8.007192 3.754523)" />
    <rect x="-7.523116" y="3.450115" width="1.0" height="1.0" transform="rotate(15.907896 -7.023116 3.950115)" />
    <rect x="-6.525558" y="3.695443" width="1.0" height="1.0" transform="rotate(19.043059 -6.025558 4.195443)" />
    <rect x="-5.600942" y="4.114281" width="1.0" height="1.0" transform="rotate(20.468819 -5.100942 4.614281)" />
    <rect x="-9.457016" y="1.909297" width="1.0" height="1.0" transform="rotate(17.191041 -8.957016 2.409297)" />
    <rect x="-8.501664" y="2.204765" width="1.0" height="1.0" transform="rotate(17.191041 -8.001664 2.704765)" />
    <rect x="-7.466106" y="2.402740" width="1.0" height="1.0" transform="rotate(11.357610 -6.966106 2.902740)" />
    <rect x="-6.435267" y="2.665263" width="1.0" height="1.0" transform="rotate(18.302790 -5.935267 3.165263)" />
    <rect x="-5.471723" y="3.011138" width="1.0" height="1.0" transform="rotate(21.059932 -4.971723 3.511138)" />
    <rect x="-4.563817" y="3.436183" width="1.0" height="1.0" transform="rotate(21.059932 -4.063817 3.936183)" />
    <rect x="-9.453669" y="0.863185" width="1.0" height="1.0" transform="rotate(17.187484 -8.953669 1.363185)" />
    <rect x="-8.497856" y="1.159178" width="1.0" height="1.0" transform="rotate(17.191041 -7.997856 1.659178)" />
    <rect x="-7.472659" y="1.381450" width="1.0" height="1.0" transform="rotate(11.357610 -6.972659 1.881450)" />
    <rect x="-6.450990" y="1.601997" width="1.0" height="1.0" transform="rotate(16.661020 -5.950990 2.101997)" />
    <rect x="-5.470120" y="1.940179" width="1.0" height="1.0" transform="rotate(21.059932 -4.970120 2.440179)" />
    <rect x="-4.536915" y="2.299524" width="1.0" height="1.0" transform="rotate(21.059932 -4.036915 2.799524)" />
    <rect x="-8.595263" y="0.031012" width="1.0" height="1.0" transform="rotate(11.357610 -8.095263 0.531012)" />
    <rect x="-7.635113" y="0.328845" width="1.0" height="1.0" transform="rotate(11.357610 -7.135113 0.828845)" />
    <rect x="-6.648976" y="0.497300" width="1.0" height="1.0" transform="rotate(11.357610 -6.148976 0.997300)" />
    <rect x="-5.616099" y="0.812392" width="1.0" height="1.0" transform="rotate(21.059932 -5.116099 1.312392)" />
    <rect x="-4.682894" y="1.171736" width="1.0" height="1.0" transform="rotate(21.059932 -4.182894 1.671736)" />
    <rect x="-7.658316" y="-0.813165" width="1.0" height="1.0" transform="rotate(26.798732 -7.158316 -0.313165)" />
    <rect x="-6.505143" y="-0.493783" width="1.0" height="1.0" transform="rotate(11.357610 -6.005143 0.006217)" />
    <rect x="-5.465303" y="-0.201118" width="1.0" height="1.0" transform="rotate(21.059932 -4.965303 0.298882)" />
    <rect x="-4.532098" y="0.158227" width="1.0" height="1.0" transform="rotate(21.059932 -4.032098 0.658227)" />
    <rect x="-8.582458" y="-1.582458" width="1.0" height="1.0" transform="rotate(90.000000 -8.082458 -1.082458)" />
    <rect x="-6.582458" y="-1.582458" width="1.0" height="1.0" transform="rotate(90.000000 -6.082458 -1.082458)" />
    <rect x="-5.472369" y="-1.275414" width="1.0" height="1.0" transform="rotate(21.059932 -4.972369 -0.775414)" />
    <rect x="-4.539164" y="-0.916070" width="1.0" height="1.0" transform="rotate(21.059932 -4.039164 -0.416070)" />
    <rect x="-5.581912" y="-2.581664" width="1.0" height="1.0" transform="rotate(89.997735 -5.081912 -2.081664)" />
    <rect x="-4.566092" y="-1.998015" width="1.0" height="1.0" transform="rotate(21.059932 -4.066092 -1.498015)" />
    <rect x="-4.554914" y="4.582458" width="1.0" height="1.0" transform="rotate(0.000000 -4.054914 5.082458)" />
    <rect x="-7.581361" y="6.582458" width="1.0" height="1.0" transform="rotate(0.000000 -7.081361 7.082458)" />
    <rect x="-6.545691" y="6.238448" width="1.0" height="1.0" transform="rotate(4.198000 -6.045691 6.738448)" />
    <rect x="-7.582458" y="-2.581904" width="1.0" height="1.0" transform="rotate(90.000000 -7.082458 -2.081904)" />
    <rect x="-6.582458" y="-3.582458" width="1.0" height="1.0" transform="rotate(90.000000 -6.082458 -3.082458)" />
    <rect x="-3.417542" y="2.582458" width="1.0" height="1.0" transform="rotate(0.000000 -2.917542 3.082458)" />
    <rect x="-3.667309" y="1.477675" width="1.0" height="1.0" transform="rotate(13.791971 -3.167309 1.977675)" />
    <rect x="-3.522325" y="0.483577" width="1.0" height="1.0" transform="rotate(13.791971 -3.022325 0.983577)" />
    <rect x="-3.556854" y="-0.578527" width="1.0" height="1.0" transform="rotate(16.522213 -3.056854 -0.078527)" />
    <rect x="-4.582458" y="-3.582458" width="1.0" height="1.0" transform="rotate(90.000000 -4.082458 -3.082458)" />
    <rect x="-3.673768" y="-2.739561" width="1.0" height="1.0" transform="rotate(19.589505 -3.173768 -2.239561)" />
    <rect x="-3.537210" y="-1.629356" width="1.0" height="1.0" transform="rotate(18.035049 -3.037210 -1.129356)" />
    <rect x="-5.582458" y="-4.582458" width="1.0" height="1.0" transform="rotate(90.000000 -5.082458 -4.082458)" />
    <rect x="6.456718" y="-9.582252" width="1.0" height="1.0" transform="rotate(89.999974 6.956718 -9.082252)" />
    <rect x="6.582458" y="-8.581829" width="1.0" height="1.0" transform="rotate(90.000000 7.082458 -8.081829)" />
    <rect x="5.325554" y="-9.582458" width="1.0" height="1.0" transform="rotate(90.000000 5.825554 -9.082458)" />
    <rect x="5.456157" y="-8.582458" width="1.0" height="1.0" transform="rotate(90.000000 5.956157 -8.082458)" />
    <rect x="5.582458" y="-7.582458" width="1.0" height="1.0" transform="rotate(90.000000 6.082458 -7.082458)" />
    <rect x="4.141130" y="-9.519474" width="1.0" height="1.0" transform="rotate(82.516270 4.641130 -9.019474)" />
    <rect x="4.391630" y="-8.543187" width="1.0" height="1.0" transform="rotate(82.519528 4.891630 -8.043187)" />
    <rect x="4.521318" y="-7.551166" width="1.0" height="1.0" transform="rotate(82.518744 5.021318 -7.051166)" />
    <rect x="4.862921" y="-6.439529" width="1.0" height="1.0" transform="rotate(61.464035 5.362921 -5.939529)" />
    <rect x="5.404344" y="-5.595656" width="1.0" height="1.0" transform="rotate(61.464035 5.904344 -5.095656)" />
    <rect x="3.055889" y="-9.477290" width="1.0" height="1.0" transform="rotate(76.181523 3.555889 -8.977290)" />
    <rect x="3.305762" y="-8.508441" width="1.0" height="1.0" transform="rotate(76.181520 3.805762 -8.008441)" />
    <rect x="3.522113" y="-7.477677" width="1.0" height="1.0" transform="rotate(82.517571 4.022113 -6.977677)" />
    <rect x="3.743579" y="-6.394029" width="1.0" height="1.0" transform="rotate(69.037039 4.243579 -5.894029)" />
    <rect x="4.140197" y="-5.475103" width="1.0" height="1.0" transform="rotate(69.037039 4.640197 -4.975103)" />
    <rect x="1.936576" y="-9.582458" width="1.0" height="1.0" transform="rotate(90.000000 2.436576 -9.082458)" />
    <rect x="2.264620" y="-8.520484" width="1.0" height="1.0" transform="rotate(75.310483 2.764620 -8.020484)" />
    <rect x="2.446496" y="-7.534373" width="1.0" height="1.0" transform="rotate(75.310483 2.946496 -7.034373)" />
    <rect x="2.625978" y="-6.516279" width="1.0" height="1.0" transform="rotate(71.720192 3.125978 -6.016279)" />
    <rect x="2.999749" y="-5.542532" width="1.0" height="1.0" transform="rotate(66.703565 3.499749 -5.042532)" />
    <rect x="3.395801" y="-4.623793" width="1.0" height="1.0" transform="rotate(66.705265 3.895801 -4.123793)" />
    <rect x="0.936576" y="-9.582458" width="1.0" height="1.0" transform="rotate(90.000000 1.436576 -9.082458)" />
    <rect x="1.222428" y="-8.491949" width="1.0" height="1.0" transform="rotate(78.380909 1.722428 -7.991949)" />
    <rect x="1.404060" y="-7.508278" width="1.0" height="1.0" transform="rotate(78.376284 1.904060 -7.008278)" />
    <rect x="1.572016" y="-6.487667" width="1.0" height="1.0" transform="rotate(74.400034 2.072016 -5.987667)" />
    <rect x="1.934840" y="-5.487128" width="1.0" height="1.0" transform="rotate(66.703565 2.434840 -4.987128)" />
    <rect x="2.330328" y="-4.568657" width="1.0" height="1.0" transform="rotate(66.703565 2.830328 -4.068657)" />
    <rect x="-0.001583" y="-8.588831" width="1.0" height="1.0" transform="rotate(82.346204 0.498417 -8.088831)" />
    <rect x="0.345223" y="-7.626448" width="1.0" height="1.0" transform="rotate(82.346204 0.845223 -7.126448)" />
    <rect x="0.478283" y="-6.635340" width="1.0" height="1.0" transform="rotate(82.346204 0.978283 -6.135340)" />
    <rect x="0.812949" y="-5.564056" width="1.0" height="1.0" transform="rotate(66.703565 1.312949 -5.064056)" />
    <rect x="1.208438" y="-4.645585" width="1.0" height="1.0" transform="rotate(66.703565 1.708438 -4.145585)" />
    <rect x="-0.807256" y="-7.660804" width="1.0" height="1.0" transform="rotate(63.642867 -0.307256 -7.160804)" />
    <rect x="-0.519948" y="-6.555291" width="1.0" height="1.0" transform="rotate(82.346204 -0.019948 -6.055291)" />
    <rect x="-0.234180" y="-5.467360" width="1.0" height="1.0" transform="rotate(66.703565 0.265820 -4.967360)" />
    <rect x="0.161308" y="-4.548889" width="1.0" height="1.0" transform="rotate(66.703565 0.661308 -4.048889)" />
    <rect x="-1.582458" y="-8.582458" width="1.0" height="1.0" transform="rotate(0.000000 -1.082458 -8.082458)" />
    <rect x="-1.578649" y="-6.586821" width="1.0" height="1.0" transform="rotate(89.501596 -1.078649 -6.086821)" />
    <rect x="-1.365480" y="-5.433952" width="1.0" height="1.0" transform="rotate(66.703565 -0.865480 -4.933952)" />
    <rect x="-0.921975" y="-4.536157" width="1.0" height="1.0" transform="rotate(66.703565 -0.421975 -4.036157)" />
    <rect x="-2.442493" y="-5.386289" width="1.0" height="1.0" transform="rotate(70.170428 -1.942493 -4.886289)" />
    <rect x="-2.066321" y="-4.458907" width="1.0" height="1.0" transform="rotate(70.170428 -1.566321 -3.958907)" />
    <rect x="4.582458" y="-4.417542" width="1.0" height="1.0" transform="rotate(90.000000 5.082458 -3.917542)" />
    <rect x="6.582458" y="-7.581383" width="1.0" height="1.0" transform="rotate(90.000000 7.082458 -7.081383)" />
    <rect x="6.267449" y="-6.545493" width="1.0" height="1.0" transform="rotate(85.775335 6.767449 -6.045493)" />
    <rect x="-2.582458" y="-7.582458" width="1.0" height="1.0" transform="rotate(90.000000 -2.082458 -7.082458)" />
    <rect x="-3.582458" y="-6.582458" width="1.0" height="1.0" transform="rotate(90.000000 -3.082458 -6.082458)" />
    <rect x="1.504032" y="-3.578163" width="1.0" height="1.0" transform="rotate(80.113209 2.004032 -3.078163)" />
    <rect x="0.503283" y="-3.495968" width="1.0" height="1.0" transform="rotate(80.113209 1.003283 -2.995968)" />
    <rect x="-0.561316" y="-3.530181" width="1.0" height="1.0" transform="rotate(74.956843 -0.061316 -3.030181)" />
    <rect x="-1.627460" y="-3.539643" width="1.0" height="1.0" transform="rotate(71.754232 -1.127460 -3.039643)" />
    <rect x="-3.582458" y="-4.582458" width="1.0" height="1.0" transform="rotate(90.000000 -3.082458 -4.082458)" />
    <rect x="-2.851097" y="-3.630970" width="1.0" height="1.0" transform="rotate(53.125598 -2.351097 -3.130970)" />
    <rect x="-2.500696" y="-2.505214" width="1.0" height="1.0" transform="rotate(79.513834 -2.000696 -2.005214)" />
    <rect x="-4.582458" y="-5.582458" width="1.0" height="1.0" transform="rotate(90.000000 -4.082458 -5.082458)" />
    <rect x="8.582242" y="-9.582280" width="1.0" height="1.0" transform="rotate(0.001789 9.082242 -9.082280)" />
    <rect x="8.582458" y="-8.581856" width="1.0" height="1.0" transform="rotate(90.000000 9.082458 -8.081856)" />
    <rect x="7.582458" y="-7.581347" width="1.0" height="1.0" transform="rotate(90.000000 8.082458 -7.081347)" />
    <rect x="8.581932" y="-6.505582" width="1.0" height="1.0" transform="rotate(0.006400 9.081932 -6.005582)" />
    <rect x="8.582458" y="-5.505029" width="1.0" height="1.0" transform="rotate(90.000000 9.082458 -5.005029)" />
    <rect x="8.582458" y="-4.419526" width="1.0" height="1.0" transform="rotate(90.000000 9.082458 -3.919526)" />
    <rect x="8.582458" y="-3.419153" width="1.0" height="1.0" transform="rotate(90.000000 9.082458 -2.919153)" />
    <rect x="8.582458" y="-2.418838" width="1.0" height="1.0" transform="rotate(0.000000 9.082458 -1.918838)" />
    <rect x="8.582458" y="-1.418580" width="1.0" height="1.0" transform="rotate(90.000000 9.082458 -0.918580)" />
    <rect x="8.582458" y="-0.418364" width="1.0" height="1.0" transform="rotate(90.000000 9.082458 0.081636)" />
    <rect x="8.582458" y="1.581920" width="1.0" height="1.0" transform="rotate(0.000000 9.082458 2.081920)" />
    <rect x="8.582458" y="2.581975" width="1.0" height="1.0" transform="rotate(0.000000 9.082458 3.081975)" />
    <rect x="8.582458" y="3.582031" width="1.0" height="1.0" transform="rotate(0.000000 9.082458 4.082031)" />
    <rect x="8.582458" y="4.582088" width="1.0" height="1.0" transform="rotate(0.000000 9.082458 5.082088)" />
    <rect x="8.582458" y="5.582148" width="1.0" height="1.0" transform="rotate(0.000000 9.082458 6.082148)" />
    <rect x="8.582458" y="6.582213" width="1.0" height="1.0" transform="rotate(0.000000 9.082458 7.082213)" />
    <rect x="8.582458" y="7.582290" width="1.0" height="1.0" transform="rotate(0.000000 9.082458 8.082290)" />
    <rect x="8.582458" y="8.582402" width="1.0" height="1.0" transform="rotate(0.000000 9.082458 9.082402)" />
    <rect x="-9.582279" y="8.582240" width="1.0" height="1.0" transform="rotate(0.000028 -9.082279 9.082240)" />
    <rect x="-8.581838" y="8.582458" width="1.0" height="1.0" transform="rotate(0.000000 -8.081838 9.082458)" />
    <rect x="-7.581300" y="7.582458" width="1.0" height="1.0" transform="rotate(0.000000 -7.081300 8.082458)" />
    <rect x="-6.524046" y="8.582125" width="1.0" height="1.0" transform="rotate(89.997220 -6.024046 9.082125)" />
    <rect x="-5.523500" y="8.582458" width="1.0" height="1.0" transform="rotate(0.000000 -5.023500 9.082458)" />
    <rect x="-4.419457" y="8.582458" width="1.0" height="1.0" transform="rotate(0.000000 -3.919457 9.082458)" />
    <rect x="-2.418799" y="8.582458" width="1.0" height="1.0" transform="rotate(0.000000 -1.918799 9.082458)" />
    <rect x="-1.418556" y="8.582458" width="1.0" height="1.0" transform="rotate(90.000000 -0.918556 9.082458)" />
    <rect x="-0.418358" y="8.582458" width="1.0" height="1.0" transform="rotate(90.000000 0.081642 9.082458)" />
    <rect x="0.581831" y="8.582458" width="1.0" height="1.0" transform="rotate(90.000000 1.081831 9.082458)" />
    <rect x="1.581938" y="8.582458" width="1.0" height="1.0" transform="rotate(0.000000 2.081938 9.082458)" />
    <rect x="2.581997" y="8.582458" width="1.0" height="1.0" transform="rotate(90.000000 3.081997 9.082458)" />
    <rect x="3.582056" y="8.582458" width="1.0" height="1.0" transform="rotate(90.000000 4.082056 9.082458)" />
    <rect x="4.582118" y="8.582458" width="1.0" height="1.0" transform="rotate(90.000000 5.082118 9.082458)" />
    <rect x="5.582185" y="8.582458" width="1.0" height="1.0" transform="rotate(90.000000 6.082185 9.082458)" />
    <rect x="6.582260" y="8.582458" width="1.0" height="1.0" transform="rotate(90.000000 7.082260 9.082458)" />
    <rect x="7.582359" y="8.582458" width="1.0" height="1.0" transform="rotate(90.000000 8.082359 9.082458)" />
    <rect x="-7.581327" y="8.582458" width="1.0" height="1.0" transform="rotate(0.000000 -7.081327 9.082458)" />
    <rect x="8.582458" y="-7.581345" width="1.0" height="1.0" transform="rotate(90.000000 9.082458 -7.081345)" />
    <rect x="-3.582458" y="-5.582458" width="1.0" height="1.0" transform="rotate(90.000000 -3.082458 -5.082458)" />
    <rect x="-6.582458" y="-2.582458" width="1.0" height="1.0" transform="rotate(90.000000 -6.082458 -2.082458)" />
    <rect x="-2.578127" y="-6.522476" width="1.0" height="1.0" transform="rotate(89.501596 -2.078127 -6.022476)" />
    <rect x="-5.582458" y="-3.582005" width="1.0" height="1.0" transform="rotate(90.000000 -5.082458 -3.082005)" />
  </g>
</svg>
