<?xml version="1.0" encoding="UTF-8"?>
<!DOCTYPE svg PUBLIC "-//W3C//DTD SVG 1.1//EN" "http://www.w3.org/Graphics/SVG/1.1/DTD/svg11.dtd" [
    <!ENTITY  s "13.91699352248131837939126853598281741142">
    <!ENTITY hs  "6.958496761240659189695634267991408705711">
]>
<svg xmlns="http://www.w3.org/2000/svg" xmlns:xlink="http://www.w3.org/1999/xlink" width="100%" height="100%" viewBox="-&hs; -&hs; &s; &s;" style="fill:#B2B2B2; stroke:black; stroke-width:0.002" id="svg">
    <script xlink:href="svgDisp.js"/>
    <defs>
        <rect width="&s;" height="&s;" id="outer" x="-&hs;" y="-&hs;"/>
        <rect width="1"   height="1"   id="one"/>
    </defs>
    <use xlink:href="#outer" style="fill:white; stroke:none"/>
    <g>
        <use xlink:href="#one" transform="translate(     -6.4584967612406539       6.4584967612406468) rotate(   -0.0000000000005459) translate(-.5 -.5)"/>
        <use xlink:href="#one" transform="translate(     -4.5447489604872287       6.4584967612406468) rotate(   -0.0000000000000020) translate(-.5 -.5)"/>
        <use xlink:href="#one" transform="translate(      6.4256591090427380      -6.4584967612406592) rotate(    0.0000000000000017) translate(-.5 -.5)"/>
        <use xlink:href="#one" transform="translate(      6.4584967612406574      -4.5415032387616874) rotate(    0.0000000000000082) translate(-.5 -.5)"/>
        <use xlink:href="#one" transform="translate(     -6.4584967612406503       1.5415032387610390) rotate(    0.0000000000000009) translate(-.5 -.5)"/>
        <use xlink:href="#one" transform="translate(     -6.4584967612406503       0.5415032387608258) rotate(    0.0000000000000025) translate(-.5 -.5)"/>
        <use xlink:href="#one" transform="translate(     -5.4584967612404371       0.6969909660408131) rotate(    0.0000000000000037) translate(-.5 -.5)"/>
        <use xlink:href="#one" transform="translate(     -6.4584967612406503      -0.4584967612393855) rotate(    0.0000000000000029) translate(-.5 -.5)"/>
        <use xlink:href="#one" transform="translate(     -5.4584967612404371      -0.4584967612393855) rotate(   -0.0000000000000216) translate(-.5 -.5)"/>
        <use xlink:href="#one" transform="translate(     -4.3330644402806255       0.0416660699574294) rotate(   36.9375912717985102) translate(-.5 -.5)"/>
        <use xlink:href="#one" transform="translate(     -6.4584967612406503      -1.4584967612395987) rotate(   -0.0000000000000222) translate(-.5 -.5)"/>
        <use xlink:href="#one" transform="translate(     -5.4584967612404371      -1.4584967612395987) rotate(   -0.0000000000000216) translate(-.5 -.5)"/>
        <use xlink:href="#one" transform="translate(     -4.2578466201366192      -1.2578466201359904) rotate(   37.2512894715083647) translate(-.5 -.5)"/>
        <use xlink:href="#one" transform="translate(     -3.5085866346230477      -0.5910866300025361) rotate(   37.2512894715083718) translate(-.5 -.5)"/>
        <use xlink:href="#one" transform="translate(     -6.4584967612406503      -2.4584967612398083) rotate(    0.0000000000000603) translate(-.5 -.5)"/>
        <use xlink:href="#one" transform="translate(     -5.4584967612404389      -2.4584967612398101) rotate(   -0.0000000000000242) translate(-.5 -.5)"/>
        <use xlink:href="#one" transform="translate(     -4.4584967612402258      -2.4584967612398101) rotate(    0.0000000000000207) translate(-.5 -.5)"/>
        <use xlink:href="#one" transform="translate(     -3.3719136004864998      -1.8604611135487845) rotate(   42.2705397664970732) translate(-.5 -.5)"/>
        <use xlink:href="#one" transform="translate(     -6.4584967612406503      -3.4584967612400215) rotate(   -0.0000000000000022) translate(-.5 -.5)"/>
        <use xlink:href="#one" transform="translate(     -5.4584967612404371      -3.4584967612400215) rotate(   -0.0000000000000021) translate(-.5 -.5)"/>
        <use xlink:href="#one" transform="translate(     -4.4584967612402258      -3.4584967612400215) rotate(    0.0000000000000204) translate(-.5 -.5)"/>
        <use xlink:href="#one" transform="translate(     -3.4584967612400144      -3.4584967612400215) rotate(    0.0000000000000028) translate(-.5 -.5)"/>
        <use xlink:href="#one" transform="translate(     -1.9299796408130705      -3.2762900141603088) rotate(   44.6839094030946313) translate(-.5 -.5)"/>
        <use xlink:href="#one" transform="translate(     -6.4584967612406503      -4.4584967612402346) rotate(   -0.0000000000000043) translate(-.5 -.5)"/>
        <use xlink:href="#one" transform="translate(     -5.4584967612404371      -4.4584967612402346) rotate(   -0.0000000000000017) translate(-.5 -.5)"/>
        <use xlink:href="#one" transform="translate(     -4.4584967612402258      -4.4584967612402346) rotate(   -0.0000000000000015) translate(-.5 -.5)"/>
        <use xlink:href="#one" transform="translate(     -3.4584967612400126      -4.4584967612402346) rotate(    0.0000000000000017) translate(-.5 -.5)"/>
        <use xlink:href="#one" transform="translate(     -2.4584967612398012      -4.4584967612402346) rotate(    0.0000000000000006) translate(-.5 -.5)"/>
        <use xlink:href="#one" transform="translate(     -1.4087151837861827      -4.4584967612402346) rotate(    0.0000000000000014) translate(-.5 -.5)"/>
        <use xlink:href="#one" transform="translate(     -6.4584967612406503      -5.4584967612404460) rotate(   -0.0000000000000030) translate(-.5 -.5)"/>
        <use xlink:href="#one" transform="translate(     -5.4584967612404371      -5.4584967612404460) rotate(   -0.0000000000000033) translate(-.5 -.5)"/>
        <use xlink:href="#one" transform="translate(     -4.4584967612402258      -5.4584967612404460) rotate(   -0.0000000000000034) translate(-.5 -.5)"/>
        <use xlink:href="#one" transform="translate(     -3.4584967612400126      -5.4584967612404460) rotate(   -0.0000000000000043) translate(-.5 -.5)"/>
        <use xlink:href="#one" transform="translate(     -2.4584967612398012      -5.4584967612404460) rotate(    0.0000000000000129) translate(-.5 -.5)"/>
        <use xlink:href="#one" transform="translate(     -1.4584967612395880      -5.4584967612404460) rotate(    0.0000000000000003) translate(-.5 -.5)"/>
        <use xlink:href="#one" transform="translate(     -0.4584967612393775      -5.4584967612404460) rotate(    0.0000000000000082) translate(-.5 -.5)"/>
        <use xlink:href="#one" transform="translate(     -6.4584967612406503      -6.4584967612406592) rotate(    0.0000000000000007) translate(-.5 -.5)"/>
        <use xlink:href="#one" transform="translate(     -5.4584967612404371      -6.4584967612406592) rotate(   -0.0000000000000032) translate(-.5 -.5)"/>
        <use xlink:href="#one" transform="translate(     -4.4584967612402258      -6.4584967612406592) rotate(   -0.0000000000000032) translate(-.5 -.5)"/>
        <use xlink:href="#one" transform="translate(     -3.4584967612400126      -6.4584967612406592) rotate(   -0.0000000000000016) translate(-.5 -.5)"/>
        <use xlink:href="#one" transform="translate(     -2.4584967612398012      -6.4584967612406592) rotate(   -0.0000000000000038) translate(-.5 -.5)"/>
        <use xlink:href="#one" transform="translate(     -1.4584967612395880      -6.4584967612406592) rotate(   -0.0000000000000010) translate(-.5 -.5)"/>
        <use xlink:href="#one" transform="translate(     -0.4584967612393767      -6.4584967612406592) rotate(    0.0000000000000001) translate(-.5 -.5)"/>
        <use xlink:href="#one" transform="translate(      0.5415032387608356      -6.4584967612406592) rotate(   -0.0000000000000023) translate(-.5 -.5)"/>
        <use xlink:href="#one" transform="translate(      1.5415032387610497      -6.4584967612406592) rotate(   -0.0000000000000030) translate(-.5 -.5)"/>
        <use xlink:href="#one" transform="translate(     -3.5447489604870173       6.4584967612406468) rotate(   -0.0000000000000015) translate(-.5 -.5)"/>
        <use xlink:href="#one" transform="translate(     -2.5447489604868041       6.4584967612406468) rotate(   -0.0000000000000027) translate(-.5 -.5)"/>
        <use xlink:href="#one" transform="translate(     -1.5447489604865909       6.4584967612406468) rotate(   -0.0000000000000058) translate(-.5 -.5)"/>
        <use xlink:href="#one" transform="translate(     -0.5447489604863796       6.4584967612406468) rotate(   -0.0000000000000034) translate(-.5 -.5)"/>
        <use xlink:href="#one" transform="translate(      0.4552510395138318       6.4584967612406468) rotate(   -0.0000000000000011) translate(-.5 -.5)"/>
        <use xlink:href="#one" transform="translate(      1.4552510395140450       6.4584967612406468) rotate(   -0.0000000000000330) translate(-.5 -.5)"/>
        <use xlink:href="#one" transform="translate(      2.4552510395142599       6.4584967612406468) rotate(   -0.0000000000000005) translate(-.5 -.5)"/>
        <use xlink:href="#one" transform="translate(      3.4552510395144713       6.4584967612406468) rotate(   -0.0000000000000015) translate(-.5 -.5)"/>
        <use xlink:href="#one" transform="translate(      4.4552510395146827       6.4584967612406468) rotate(   -0.0000000000000025) translate(-.5 -.5)"/>
        <use xlink:href="#one" transform="translate(      5.4552510395148959       6.4584967612406468) rotate(    0.0000000000000004) translate(-.5 -.5)"/>
        <use xlink:href="#one" transform="translate(      6.4552510395151073       6.4584967612406468) rotate(   -0.0000000000000026) translate(-.5 -.5)"/>
        <use xlink:href="#one" transform="translate(     -2.5415032387612522       5.4584967612404336) rotate(   -0.0000000000000053) translate(-.5 -.5)"/>
        <use xlink:href="#one" transform="translate(     -1.5415032387610408       5.4584967612404336) rotate(   -0.0000000000000013) translate(-.5 -.5)"/>
        <use xlink:href="#one" transform="translate(     -0.5415032387608285       5.4584967612404336) rotate(    0.0000000000000128) translate(-.5 -.5)"/>
        <use xlink:href="#one" transform="translate(      0.4584967612393829       5.4258282712511958) rotate(    0.0000000000000146) translate(-.5 -.5)"/>
        <use xlink:href="#one" transform="translate(      1.4584967612395969       5.4584967612404336) rotate(   -0.0000000000000314) translate(-.5 -.5)"/>
        <use xlink:href="#one" transform="translate(      2.4584967612398083       5.4584967612404336) rotate(   -0.0000000000000023) translate(-.5 -.5)"/>
        <use xlink:href="#one" transform="translate(      3.4584967612400197       5.4584967612404265) rotate(   -0.0000000000000002) translate(-.5 -.5)"/>
        <use xlink:href="#one" transform="translate(      4.4584967612402311       5.4584967612404336) rotate(   -0.0000000000000006) translate(-.5 -.5)"/>
        <use xlink:href="#one" transform="translate(      5.4584967612404443       5.4584967612404336) rotate(    0.0000000000000023) translate(-.5 -.5)"/>
        <use xlink:href="#one" transform="translate(      6.4584967612406574       5.4584967612404336) rotate(   -0.0000000000000010) translate(-.5 -.5)"/>
        <use xlink:href="#one" transform="translate(     -1.5415032387610408       4.4584967612402204) rotate(   -0.0000000000000032) translate(-.5 -.5)"/>
        <use xlink:href="#one" transform="translate(     -0.5415032387608276       4.4584967612402204) rotate(    0.0000000000000123) translate(-.5 -.5)"/>
        <use xlink:href="#one" transform="translate(      0.4584967612393829       4.4258282712509827) rotate(   -0.0000000000000171) translate(-.5 -.5)"/>
        <use xlink:href="#one" transform="translate(      1.4584967612395952       4.4584967612402240) rotate(   -0.0000000000000343) translate(-.5 -.5)"/>
        <use xlink:href="#one" transform="translate(      2.4584967612398083       4.4584967612402240) rotate(   -0.0000000000000243) translate(-.5 -.5)"/>
        <use xlink:href="#one" transform="translate(      3.4584967612400215       4.4584967612402204) rotate(   -0.0000000000000031) translate(-.5 -.5)"/>
        <use xlink:href="#one" transform="translate(      4.4584967612402311       4.4584967612402204) rotate(   -0.0000000000000192) translate(-.5 -.5)"/>
        <use xlink:href="#one" transform="translate(      5.4584967612404443       4.4584967612402204) rotate(    0.0000000000000019) translate(-.5 -.5)"/>
        <use xlink:href="#one" transform="translate(      6.4584967612406574       4.4584967612402204) rotate(    0.0000000000000014) translate(-.5 -.5)"/>
        <use xlink:href="#one" transform="translate(     -0.5415032387608294       3.4584967612400108) rotate(   -0.0000000000000047) translate(-.5 -.5)"/>
        <use xlink:href="#one" transform="translate(      0.4584967612393820       3.4258282712507730) rotate(   -0.0000000000000223) translate(-.5 -.5)"/>
        <use xlink:href="#one" transform="translate(      1.4584967612395952       3.4584967612400108) rotate(   -0.0000000000000483) translate(-.5 -.5)"/>
        <use xlink:href="#one" transform="translate(      2.4584967612398083       3.4584967612400108) rotate(   -0.0000000000000462) translate(-.5 -.5)"/>
        <use xlink:href="#one" transform="translate(      3.4584967612400197       3.4584967612400108) rotate(   -0.0000000000000185) translate(-.5 -.5)"/>
        <use xlink:href="#one" transform="translate(      4.4584967612402311       3.4584967612400108) rotate(   -0.0000000000000199) translate(-.5 -.5)"/>
        <use xlink:href="#one" transform="translate(      5.4584967612404443       3.4584967612400108) rotate(    0.0000000000000050) translate(-.5 -.5)"/>
        <use xlink:href="#one" transform="translate(      6.4584967612406574       3.4584967612400108) rotate(    0.0000000000000042) translate(-.5 -.5)"/>
        <use xlink:href="#one" transform="translate(     -0.5415032387608294       2.4584967612397977) rotate(   -0.0000000000000065) translate(-.5 -.5)"/>
        <use xlink:href="#one" transform="translate(      0.4584967612393820       2.4258282712505599) rotate(   -0.0000000000000040) translate(-.5 -.5)"/>
        <use xlink:href="#one" transform="translate(      1.4584967612395952       2.4584967612397977) rotate(   -0.0000000000000236) translate(-.5 -.5)"/>
        <use xlink:href="#one" transform="translate(      2.4584967612398083       2.4584967612398012) rotate(   -0.0000000000000157) translate(-.5 -.5)"/>
        <use xlink:href="#one" transform="translate(      3.4584967612400197       2.4584967612397977) rotate(   -0.0000000000000211) translate(-.5 -.5)"/>
        <use xlink:href="#one" transform="translate(      4.4584967612402311       2.4584967612397977) rotate(   -0.0000000000000193) translate(-.5 -.5)"/>
        <use xlink:href="#one" transform="translate(      5.4584967612404443       2.4584967612397977) rotate(    0.0000000000000050) translate(-.5 -.5)"/>
        <use xlink:href="#one" transform="translate(      6.4584967612406574       2.4584967612397977) rotate(    0.0000000000000066) translate(-.5 -.5)"/>
        <use xlink:href="#one" transform="translate(     -0.5415032387608294       1.4584967612395845) rotate(    0.0000000000000028) translate(-.5 -.5)"/>
        <use xlink:href="#one" transform="translate(      0.4584967612393820       1.4258282712503467) rotate(    0.0000000000000019) translate(-.5 -.5)"/>
        <use xlink:href="#one" transform="translate(      1.4584967612395987       1.4584967612395845) rotate(   -0.0000000000000223) translate(-.5 -.5)"/>
        <use xlink:href="#one" transform="translate(      2.4584967612398083       1.4584967612395880) rotate(   -0.0000000000001105) translate(-.5 -.5)"/>
        <use xlink:href="#one" transform="translate(      3.4584967612400197       1.4584967612395880) rotate(   -0.0000000000000242) translate(-.5 -.5)"/>
        <use xlink:href="#one" transform="translate(      4.4584967612402311       1.4584967612395845) rotate(   -0.0000000000000196) translate(-.5 -.5)"/>
        <use xlink:href="#one" transform="translate(      5.4584967612404443       1.4584967612395845) rotate(   -0.0000000000000058) translate(-.5 -.5)"/>
        <use xlink:href="#one" transform="translate(      6.4584967612406574       1.4584967612395845) rotate(    0.0000000000000064) translate(-.5 -.5)"/>
        <use xlink:href="#one" transform="translate(     -0.5415032387608303       0.4584967612393740) rotate(    0.0000000000000011) translate(-.5 -.5)"/>
        <use xlink:href="#one" transform="translate(      0.4584967612393864       0.4258282712501407) rotate(   -0.0000000000006709) translate(-.5 -.5)"/>
        <use xlink:href="#one" transform="translate(      1.4584967612396005       0.4584967612393731) rotate(    0.0000000000001672) translate(-.5 -.5)"/>
        <use xlink:href="#one" transform="translate(      2.4584967612398119       0.4584967612393758) rotate(   -0.0000000000000282) translate(-.5 -.5)"/>
        <use xlink:href="#one" transform="translate(      3.4584967612400233       0.4584967612393775) rotate(   -0.0000000000000252) translate(-.5 -.5)"/>
        <use xlink:href="#one" transform="translate(      4.4584967612402346       0.4584967612393749) rotate(   -0.0000000000000197) translate(-.5 -.5)"/>
        <use xlink:href="#one" transform="translate(      5.4584967612404478       0.4584967612393731) rotate(    0.0000000000000113) translate(-.5 -.5)"/>
        <use xlink:href="#one" transform="translate(      6.4584967612406574       0.4584967612393740) rotate(    0.0000000000000075) translate(-.5 -.5)"/>
        <use xlink:href="#one" transform="translate(      1.4584967612395934      -0.5415032387608383) rotate(    0.0000000000000064) translate(-.5 -.5)"/>
        <use xlink:href="#one" transform="translate(      2.4584967612398083      -0.5415032387608356) rotate(    0.0000000000000192) translate(-.5 -.5)"/>
        <use xlink:href="#one" transform="translate(      3.4584967612400197      -0.5415032387608347) rotate(   -0.0000000000000224) translate(-.5 -.5)"/>
        <use xlink:href="#one" transform="translate(      4.4584967612402311      -0.5415032387608383) rotate(    0.0000000000000164) translate(-.5 -.5)"/>
        <use xlink:href="#one" transform="translate(      5.4584967612404443      -0.5415032387608392) rotate(   -0.0000000000000710) translate(-.5 -.5)"/>
        <use xlink:href="#one" transform="translate(      6.4584967612406592      -0.5415032387608383) rotate(    0.0000000000000056) translate(-.5 -.5)"/>
        <use xlink:href="#one" transform="translate(      4.4584967612402329      -1.5415032387610514) rotate(   -0.0000000000001198) translate(-.5 -.5)"/>
        <use xlink:href="#one" transform="translate(      5.4584967612404443      -1.5415032387610497) rotate(    0.0000000000000064) translate(-.5 -.5)"/>
        <use xlink:href="#one" transform="translate(      6.4584967612406574      -1.5415032387610497) rotate(    0.0000000000000082) translate(-.5 -.5)"/>
        <use xlink:href="#one" transform="translate(      5.4584967612404443      -2.5415032387612628) rotate(    0.0000000000000069) translate(-.5 -.5)"/>
        <use xlink:href="#one" transform="translate(      6.4584967612406574      -2.5415032387612628) rotate(    0.0000000000000059) translate(-.5 -.5)"/>
        <use xlink:href="#one" transform="translate(      6.4584967612406574      -3.5415032387614742) rotate(    0.0000000000000073) translate(-.5 -.5)"/>
        <use xlink:href="#one" transform="translate(     -2.6387218440304006      -2.5707793059469042) rotate(   44.6839094030946313) translate(-.5 -.5)"/>
        <use xlink:href="#one" transform="translate(     -1.5415032387610390      -0.5888695971501656) rotate(   -0.0000000000000850) translate(-.5 -.5)"/>
        <use xlink:href="#one" transform="translate(     -1.1779085146139403      -2.6146248151274714) rotate(   44.6839094030946313) translate(-.5 -.5)"/>
        <use xlink:href="#one" transform="translate(     -1.8811035731051282      -1.9036278322126394) rotate(   44.6839094030946313) translate(-.5 -.5)"/>
        <use xlink:href="#one" transform="translate(     -6.2577622563292072       5.0755073812435443) rotate(   37.3021558496496937) translate(-.5 -.5)"/>
        <use xlink:href="#one" transform="translate(     -5.4750465229397234       5.6982414129114014) rotate(   37.3021558496496937) translate(-.5 -.5)"/>
        <use xlink:href="#one" transform="translate(     -3.5415032387614653       5.4584967612404336) rotate(   -0.0000000000000055) translate(-.5 -.5)"/>
        <use xlink:href="#one" transform="translate(     -6.2577622563292072       3.7422377436729031) rotate(   37.3021558496496937) translate(-.5 -.5)"/>
        <use xlink:href="#one" transform="translate(     -5.4990061318021430       4.3964208028154141) rotate(   37.3021558496496937) translate(-.5 -.5)"/>
        <use xlink:href="#one" transform="translate(     -4.7162903984126592       5.0191548344832713) rotate(   37.3021558496496937) translate(-.5 -.5)"/>
        <use xlink:href="#one" transform="translate(     -3.5415032387614653       4.4046705374269886) rotate(   -0.0000000000000054) translate(-.5 -.5)"/>
        <use xlink:href="#one" transform="translate(     -6.4584967612406503       2.5415032387612522) rotate(    0.0000000000000012) translate(-.5 -.5)"/>
        <use xlink:href="#one" transform="translate(     -5.3567094545888443       3.0766636905955922) rotate(   37.3021558496496937) translate(-.5 -.5)"/>
        <use xlink:href="#one" transform="translate(     -4.6436991372742673       3.7908920182621637) rotate(   37.3021558496496937) translate(-.5 -.5)"/>
        <use xlink:href="#one" transform="translate(     -3.7395705660669298       3.2066032101213127) rotate(   35.8287195882442120) translate(-.5 -.5)"/>
        <use xlink:href="#one" transform="translate(     -2.5415032387612522       4.4584967612402204) rotate(   -0.0000000000000026) translate(-.5 -.5)"/>
        <use xlink:href="#one" transform="translate(     -5.2604294339349726       1.8964230634411949) rotate(   35.8287195882442120) translate(-.5 -.5)"/>
        <use xlink:href="#one" transform="translate(     -4.4556273589716193       2.4900539088218752) rotate(   35.8287195882442120) translate(-.5 -.5)"/>
        <use xlink:href="#one" transform="translate(     -2.5415032387612557       2.4584967612397977) rotate(   -0.0000000000000059) translate(-.5 -.5)"/>
        <use xlink:href="#one" transform="translate(     -2.5415032387612557       3.4584967612400108) rotate(   -0.0000000000000041) translate(-.5 -.5)"/>
        <use xlink:href="#one" transform="translate(     -1.5415032387610426       3.4584967612400108) rotate(   -0.0000000000000053) translate(-.5 -.5)"/>
        <use xlink:href="#one" transform="translate(     -4.4031526147411713       1.2819694283015588) rotate(   35.8287195882442120) translate(-.5 -.5)"/>
        <use xlink:href="#one" transform="translate(     -3.5983505397778179       1.8756002736822390) rotate(   35.8287195882442120) translate(-.5 -.5)"/>
        <use xlink:href="#one" transform="translate(     -2.7406833563374642       1.2593166436633760) rotate(   36.4128928344141940) translate(-.5 -.5)"/>
        <use xlink:href="#one" transform="translate(     -1.5415032387610426       2.4584967612397977) rotate(    0.0000000000000037) translate(-.5 -.5)"/>
        <use xlink:href="#one" transform="translate(     -3.5454436007684782       0.6657166529425540) rotate(   36.4128928344141940) translate(-.5 -.5)"/>
        <use xlink:href="#one" transform="translate(     -2.7180561781960089       0.0334005846970840) rotate(   36.4128928344141940) translate(-.5 -.5)"/>
        <use xlink:href="#one" transform="translate(     -1.5415032387610426       1.4584967612395845) rotate(    0.0000000000000053) translate(-.5 -.5)"/>
        <use xlink:href="#one" transform="translate(     -2.6203238581440766      -1.1866381070748426) rotate(   41.1836753551395915) translate(-.5 -.5)"/>
        <use xlink:href="#one" transform="translate(     -1.5415032387610426       0.4584967612393740) rotate(    0.0000000000000040) translate(-.5 -.5)"/>
        <use xlink:href="#one" transform="translate(      5.0970049836120497      -6.2826698013424958) rotate(  -27.8942794834421903) translate(-.5 -.5)"/>
        <use xlink:href="#one" transform="translate(      5.6361818104126185      -5.4366184097878412) rotate(  -27.8942794834421903) translate(-.5 -.5)"/>
        <use xlink:href="#one" transform="translate(      5.4584967612404443      -3.5415032387614760) rotate(    0.0000000000000045) translate(-.5 -.5)"/>
        <use xlink:href="#one" transform="translate(      3.8486566932633304      -6.2826698013424958) rotate(  -27.8942794834421832) translate(-.5 -.5)"/>
        <use xlink:href="#one" transform="translate(      4.4078010589758305      -5.4471881250815164) rotate(  -27.8942794834421903) translate(-.5 -.5)"/>
        <use xlink:href="#one" transform="translate(      4.9469778857763957      -4.6011367335268618) rotate(  -27.8942794834421903) translate(-.5 -.5)"/>
        <use xlink:href="#one" transform="translate(      4.2828847876492313      -3.7171152123524758) rotate(  -27.8351542084944334) translate(-.5 -.5)"/>
        <use xlink:href="#one" transform="translate(      2.7171152123522626      -6.2828847876496576) rotate(  -27.8351542084944334) translate(-.5 -.5)"/>
        <use xlink:href="#one" transform="translate(      3.1844742563199171      -5.3988170525749508) rotate(  -27.8351542084944334) translate(-.5 -.5)"/>
        <use xlink:href="#one" transform="translate(      3.7436687450494270      -4.5632406875485012) rotate(  -27.8351542084944334) translate(-.5 -.5)"/>
        <use xlink:href="#one" transform="translate(      3.0801502075643254      -3.6773401405904194) rotate(  -28.6027116723830659) translate(-.5 -.5)"/>
        <use xlink:href="#one" transform="translate(      4.4584967612402311      -2.5415032387612628) rotate(   -0.0000000000001197) translate(-.5 -.5)"/>
        <use xlink:href="#one" transform="translate(      2.0491037695434828      -5.3931393513671724) rotate(  -28.6027116723830659) translate(-.5 -.5)"/>
        <use xlink:href="#one" transform="translate(      2.5215818909572905      -4.5117681540192978) rotate(  -28.6027116723830659) translate(-.5 -.5)"/>
        <use xlink:href="#one" transform="translate(      1.8586833324238876      -3.6008084957581632) rotate(  -26.4884968943543804) translate(-.5 -.5)"/>
        <use xlink:href="#one" transform="translate(      3.4584967612400179      -2.5415032387612593) rotate(   -0.0000000000000365) translate(-.5 -.5)"/>
        <use xlink:href="#one" transform="translate(      3.4584967612400215      -1.5415032387610461) rotate(    0.0000000000000192) translate(-.5 -.5)"/>
        <use xlink:href="#one" transform="translate(      1.3860050203343954      -4.4825468274353897) rotate(  -26.4884968943543804) translate(-.5 -.5)"/>
        <use xlink:href="#one" transform="translate(      1.1804488713897880      -2.7184113263403527) rotate(  -28.1946684205889930) translate(-.5 -.5)"/>
        <use xlink:href="#one" transform="translate(      2.3573569589690928      -2.5415032387612628) rotate(    0.0000000000000056) translate(-.5 -.5)"/>
        <use xlink:href="#one" transform="translate(      2.4584967612398083      -1.5415032387610497) rotate(    0.0000000000000046) translate(-.5 -.5)"/>
        <use xlink:href="#one" transform="translate(      0.7601966956968216      -5.2879757331587536) rotate(  -26.4884968943543804) translate(-.5 -.5)"/>
        <use xlink:href="#one" transform="translate(      0.7079801170385913      -3.5997587471468426) rotate(  -28.1946684205889966) translate(-.5 -.5)"/>
        <use xlink:href="#one" transform="translate(      0.4584967612393829      -1.5741717287502874) rotate(   -0.0000000000000938) translate(-.5 -.5)"/>
        <use xlink:href="#one" transform="translate(      1.4584967612395969      -1.5415032387610497) rotate(   -0.0000000000000952) translate(-.5 -.5)"/>
        <use xlink:href="#one" transform="translate(      0.0458225295036785      -2.7184113263403527) rotate(  -28.1946684205889930) translate(-.5 -.5)"/>
        <use xlink:href="#one" transform="translate(     -0.5415032387608285      -1.5415032387610497) rotate(   -0.0000000000000860) translate(-.5 -.5)"/>
        <use xlink:href="#one" transform="translate(      0.0806617773591212      -4.4064037777733160) rotate(  -29.4517315744694450) translate(-.5 -.5)"/>
        <use xlink:href="#one" transform="translate(     -0.6071457577618107      -3.5595952880110682) rotate(  -36.1548609880715475) translate(-.5 -.5)"/>
        <use xlink:href="#one" transform="translate(     -0.5415032387608303      -0.5415032387608374) rotate(   -0.0000000000000852) translate(-.5 -.5)"/>
        <use xlink:href="#one" transform="translate(      0.4584967612393820      -0.5741717287500769) rotate(   -0.0000000000000839) translate(-.5 -.5)"/>
    </g>
</svg>
